<svg width="46" height="34" viewBox="0 0 46 34" fill="none" xmlns="http://www.w3.org/2000/svg">
<path d="M36.7743 0.753572C36.9211 0.84702 37.066 0.942771 37.2098 1.04041C37.3266 1.12823 37.3266 1.12823 37.4462 1.11865C37.511 1.18104 37.5755 1.24364 37.6388 1.30736C37.7894 1.44857 37.9618 1.56235 38.1312 1.68131C38.5634 1.99004 38.9722 2.31849 39.3738 2.66346C39.426 2.70796 39.4782 2.75245 39.5319 2.7983C40.2602 3.43136 40.9815 4.09375 41.5767 4.84749C41.6344 4.9173 41.6922 4.98699 41.7501 5.05662C42.7016 6.20833 43.5144 7.45597 44.1652 8.78941C44.1828 8.82524 44.2005 8.86107 44.2186 8.89798C45.3067 11.1251 45.9826 13.6404 45.9938 16.1112C45.9941 16.1675 45.9944 16.2237 45.9947 16.2816C45.9952 16.4001 45.9956 16.5186 45.9958 16.6371C45.9964 16.8136 45.9981 16.99 45.9998 17.1665C46.0231 21.7481 44.0029 26.3833 40.8242 29.7465C40.7533 29.8223 40.6828 29.8984 40.614 29.976C40.3441 30.2799 40.0562 30.5636 39.7628 30.8462C39.7157 30.8919 39.6685 30.9377 39.62 30.9849C38.3573 32.2044 36.3995 33.9736 34.5136 33.999C34.2594 33.991 34.0084 33.9639 33.7563 33.9325C33.7563 33.8973 33.7563 33.8621 33.7563 33.8259C33.712 33.8149 33.6677 33.804 33.6221 33.7926C33.073 33.5877 32.6288 33.2042 32.3423 32.7069C32.1024 32.1748 32.0607 31.614 32.2487 31.0593C32.5306 30.4158 33.0538 30.0273 33.6668 29.6909C34.4573 29.2435 35.1797 28.7251 35.8778 28.1524C35.9142 28.1226 35.9506 28.0929 35.9881 28.0622C36.0198 28.036 36.0516 28.0097 36.0843 27.9826C36.1847 27.9093 36.2859 27.8575 36.3998 27.8065C36.3998 27.7714 36.3998 27.7362 36.3998 27.7C36.473 27.6305 36.473 27.6305 36.5788 27.5468C37.0512 27.1581 37.492 26.7242 37.8868 26.2617C37.9098 26.2352 37.9327 26.2087 37.9564 26.1814C38.4163 25.6483 38.825 25.0904 39.2086 24.5038C39.2326 24.4672 39.2566 24.4305 39.2813 24.3928C41.2697 21.3204 42.0572 17.4654 41.3014 13.9033C41.2915 13.8543 41.2816 13.8053 41.2714 13.7548C41.0119 12.4897 40.5987 11.2144 39.9796 10.0679C39.9433 10.0679 39.9069 10.0679 39.8695 10.0679C39.8656 10.0333 39.8617 9.99879 39.8576 9.96321C39.7969 9.73597 39.6825 9.54862 39.5631 9.34541C39.5384 9.30291 39.5137 9.26042 39.4882 9.21663C39.1734 8.68135 38.8351 8.10851 38.3825 7.67076C38.3372 7.61122 38.2925 7.55123 38.2482 7.49098C37.9814 7.14285 37.671 6.81076 37.3453 6.5132C37.281 6.44557 37.281 6.44557 37.281 6.33903C37.2447 6.33903 37.2083 6.33903 37.1709 6.33903C37.0763 6.25299 36.985 6.16364 36.8955 6.07269C36.0518 5.22079 35.0676 4.56875 34.0364 3.94566C33.476 3.58203 33.0647 3.04865 32.9302 2.39711C32.8719 1.7273 33.0474 1.16584 33.481 0.639231C34.4636 -0.361364 35.7472 0.120435 36.7743 0.753572Z" fill="currentColor"/>
<path d="M12.1683 0.34625C12.6748 0.715871 12.99 1.16958 13.0916 1.7814C13.1489 2.4182 12.9312 3.01818 12.5084 3.50827C12.2591 3.74425 11.964 3.92007 11.672 4.10173C10.9594 4.55196 10.2854 5.01589 9.66028 5.57786C9.54588 5.68031 9.42959 5.77879 9.3107 5.87626C8.78114 6.32326 8.3025 6.81419 7.87191 7.35115C7.81649 7.41858 7.76106 7.48599 7.70561 7.5534C6.71777 8.76566 5.93837 10.1079 5.39361 11.5594C5.37845 11.5994 5.36328 11.6394 5.34766 11.6806C4.84165 13.03 4.54156 14.4912 4.51244 15.9275C4.51075 15.9962 4.51075 15.9962 4.50903 16.0664C4.43962 19.3039 5.37479 22.5212 7.37625 25.143C7.4019 25.1768 7.42754 25.2106 7.45397 25.2454C7.71527 25.5872 7.98956 25.9139 8.29055 26.224C8.36757 26.315 8.36757 26.315 8.36757 26.4215C8.40392 26.4215 8.44027 26.4215 8.47772 26.4215C8.55925 26.4997 8.55925 26.4997 8.65326 26.6079C8.68741 26.6467 8.72156 26.6854 8.75674 26.7253C8.79188 26.7657 8.82702 26.8061 8.86323 26.8477C9.07128 27.0852 9.27044 27.2936 9.52411 27.4869C9.52411 27.522 9.52411 27.5572 9.52411 27.5934C9.56883 27.6109 9.56883 27.6109 9.61446 27.6288C9.78776 27.7237 9.9192 27.8532 10.0611 27.9863C10.4614 28.3528 10.895 28.667 11.3415 28.9784C11.3902 29.0128 11.4388 29.0472 11.4889 29.0827C11.6888 29.2214 11.8919 29.352 12.1022 29.4753C12.8411 29.9089 13.5653 30.3741 13.7938 31.2305C13.9069 31.8605 13.7981 32.4744 13.4481 33.0202C13.076 33.5115 12.5195 33.8829 11.8923 33.9857C10.1504 34.0039 8.38489 32.4638 7.18336 31.3523C7.0657 31.2401 6.95014 31.1262 6.83563 31.011C6.71678 30.8934 6.71678 30.8934 6.57963 30.7912C6.05486 30.3846 5.61099 29.8484 5.19053 29.343C5.07506 29.2056 4.95725 29.0708 4.83812 28.9365C4.37863 28.4177 3.96471 27.8714 3.56781 27.3067C3.46903 27.1714 3.39924 27.0817 3.24576 27.0075C3.23937 26.9702 3.23298 26.9329 3.2264 26.8945C3.17871 26.6897 3.06768 26.5375 2.94974 26.3649C2.34375 25.4484 1.86219 24.4947 1.42834 23.4917C1.40961 23.449 1.39087 23.4063 1.37157 23.3624C0.582206 21.5536 0.169837 19.6077 0.0411838 17.6554C0.0388122 17.6195 0.0364406 17.5837 0.0339971 17.5467C-0.19893 13.9324 0.773359 10.2888 2.69503 7.19134C2.71958 7.15148 2.74413 7.11163 2.76943 7.07057C3.44871 5.97401 4.23936 4.95915 5.14794 4.03098C5.28202 3.89573 5.28202 3.89573 5.37769 3.76297C5.40112 3.73413 5.42455 3.70529 5.44869 3.67557C5.48504 3.67557 5.52138 3.67557 5.55883 3.67557C5.57076 3.64611 5.58269 3.61666 5.59498 3.58631C5.69289 3.42249 5.82688 3.30995 5.97188 3.18616C6.00145 3.16049 6.03101 3.13482 6.06147 3.10837C6.12198 3.05585 6.18261 3.00347 6.24335 2.95121C6.32096 2.88422 6.39785 2.81644 6.47464 2.74856C7.29764 2.02152 8.18504 1.35827 9.13859 0.799038C9.17083 0.780085 9.20306 0.761133 9.23626 0.741607C10.1696 0.197594 11.1439 -0.280725 12.1683 0.34625Z" fill="currentColor"/>
<path d="M31.8288 5.85961C31.8633 5.87647 31.8979 5.89332 31.9335 5.91069C32.4751 6.17918 32.9584 6.4963 33.4259 6.87172C33.4573 6.89666 33.4886 6.92159 33.521 6.94728C36.0748 8.98542 37.886 11.9442 38.2378 15.1562C38.2705 15.4998 38.2963 15.8435 38.3154 16.188C38.3208 16.3033 38.3208 16.3033 38.3825 16.4069C38.3461 16.4069 38.3098 16.4069 38.2723 16.4069C38.2732 16.436 38.2741 16.4651 38.275 16.495C38.348 19.364 37.3084 22.1591 35.4636 24.3973C35.403 24.4728 35.403 24.4728 35.3412 24.5498C34.8057 25.2032 34.2181 25.805 33.536 26.315C33.4883 26.3547 33.4405 26.3944 33.3913 26.4352C32.7673 26.9535 31.9915 27.4568 31.138 27.4268C30.503 27.3537 29.9464 27.1806 29.5058 26.7116C29.0815 26.1602 28.8959 25.6062 28.988 24.9177C29.1477 24.179 29.6675 23.7107 30.2676 23.2697C32.0551 21.9205 33.171 19.8387 33.481 17.6854C33.4862 17.6495 33.4915 17.6137 33.4969 17.5768C33.7735 15.4785 33.2671 13.2248 31.9837 11.4962C31.9144 11.4101 31.8444 11.3247 31.7737 11.2398C31.7414 11.1979 31.7091 11.156 31.6758 11.1129C31.1592 10.4558 30.5251 9.89237 29.8339 9.41179C29.3431 9.06638 28.8793 8.66679 28.7118 8.07777C28.6278 7.54488 28.6357 7.0327 28.9099 6.55211C28.9406 6.49717 28.9712 6.44224 29.0028 6.38564C29.7441 5.49427 30.7919 5.35282 31.8288 5.85961Z" fill="currentColor"/>
<path d="M16.0703 5.73934C16.632 6.05914 17.0005 6.46981 17.1793 7.0848C17.2874 7.61359 17.2285 8.12912 16.9383 8.59631C16.8912 8.66141 16.8431 8.72585 16.7938 8.78941C16.7563 8.84105 16.7188 8.89269 16.6802 8.94589C16.499 9.14891 16.2673 9.29458 16.0447 9.45195C15.7099 9.69218 15.3977 9.95981 15.0865 10.2277C15.0492 10.2598 15.0118 10.292 14.9733 10.3251C13.4522 11.7189 12.5137 13.8211 12.4363 15.8348C12.3721 18.1459 12.9066 20.3924 14.5358 22.16C14.5979 22.2287 14.5979 22.2287 14.6612 22.2988C15.1356 22.8172 15.6387 23.2663 16.2028 23.6927C16.6675 24.0588 16.8886 24.4905 16.9949 25.0588C17.0566 25.674 16.8561 26.2369 16.461 26.7184C16.0944 27.0981 15.6527 27.3613 15.11 27.3912C13.6546 27.4184 12.5953 26.4013 11.582 25.4924C11.273 25.2013 11.0049 24.8825 10.7357 24.5571C10.6948 24.5098 10.6539 24.4626 10.6118 24.4139C9.15684 22.733 7.63755 20.1008 7.76176 17.8452C7.72542 17.8276 7.68907 17.81 7.65162 17.7919C7.59141 14.2739 8.36565 10.9828 10.896 8.32456C11.0033 8.21164 11.1073 8.09666 11.2107 7.98039C11.5695 7.5843 11.9632 7.25418 12.3879 6.92499C12.4322 6.88922 12.4765 6.85344 12.5222 6.81658C13.4491 6.07483 14.8362 5.15972 16.0703 5.73934Z" fill="currentColor"/>
<path d="M23.1272 10.7071C23.2321 10.7154 23.2321 10.7154 23.3391 10.724C24.1034 10.7938 24.8025 10.9698 25.4994 11.2839C25.6657 11.3595 25.6657 11.3595 25.8809 11.3463C25.8809 11.3991 25.8809 11.4518 25.8809 11.5061C25.9198 11.5193 25.9588 11.5324 25.999 11.5459C27.1245 12.0239 28.0391 13.2062 28.5156 14.2639C28.9413 15.4106 29.0878 16.6592 28.7447 17.8452C28.7293 17.8993 28.714 17.9535 28.6982 18.0093C28.4974 18.6481 28.1731 19.2346 27.7534 19.7629C27.716 19.8111 27.6787 19.8593 27.6402 19.9089C27.3493 20.2704 27.0301 20.5539 26.6519 20.8282C26.609 20.8604 26.5661 20.8927 26.5219 20.9258C25.2232 21.8596 23.6141 22.1523 22.0298 21.93C20.4146 21.6805 18.9951 20.8287 18.0226 19.5631C17.0915 18.2089 16.8416 16.6735 17.1651 15.0879C17.5349 13.5984 18.536 12.3497 19.8641 11.5376C20.8112 10.9815 22.009 10.6155 23.1272 10.7071Z" fill="currentColor"/>
<path d="M4.29215 28.1261C4.63409 28.4465 4.94385 28.793 5.24216 29.1516C5.48373 29.4396 5.74074 29.7108 6.00243 29.9816C6.1937 30.1796 6.3792 30.3823 6.56435 30.5857C6.65373 30.6874 6.65373 30.6874 6.77045 30.7363C6.77045 30.7715 6.77045 30.8066 6.77045 30.8428C6.81624 30.8608 6.81624 30.8608 6.86295 30.8791C7.0295 30.9707 7.14067 31.0884 7.27299 31.2224C7.54649 31.4939 7.83671 31.73 8.14728 31.9615C8.23106 32.0281 8.31482 32.0946 8.39855 32.1613C9.42373 32.9991 9.42373 32.9991 10.6256 33.5063C10.6256 33.5415 10.6256 33.5766 10.6256 33.6128C11.1704 33.7645 11.6603 33.7915 12.2227 33.7727C12.1125 33.9325 12.1125 33.9325 12.0162 33.9697C10.739 34.1348 9.5657 33.2105 8.6083 32.509C7.98597 32.0453 7.38055 31.5591 6.83563 31.011C6.71678 30.8934 6.71678 30.8934 6.57963 30.7912C6.05536 30.3849 5.61208 29.8495 5.19182 29.3447C5.01856 29.1384 4.84054 28.9362 4.66207 28.7342C4.29215 28.3139 4.29215 28.3139 4.29215 28.1261Z" fill="currentColor"/>
<path d="M5.33854 21.6806C5.54605 21.8519 5.62866 22.0349 5.72061 22.2765C6.13773 23.3036 6.69951 24.2566 7.37625 25.143C7.41472 25.1937 7.41472 25.1937 7.45397 25.2454C7.71527 25.5872 7.98956 25.9139 8.29055 26.224C8.36757 26.315 8.36757 26.315 8.36757 26.4215C8.40392 26.4215 8.44027 26.4215 8.47772 26.4215C8.55925 26.4997 8.55925 26.4997 8.65326 26.6079C8.68741 26.6467 8.72156 26.6854 8.75674 26.7253C8.80945 26.7859 8.80945 26.7859 8.86323 26.8477C9.07128 27.0852 9.27044 27.2936 9.52411 27.4869C9.52411 27.522 9.52411 27.5572 9.52411 27.5934C9.60589 27.6198 9.60589 27.6198 9.68933 27.6467C9.66207 27.7258 9.66207 27.7258 9.63425 27.8065C9.37725 27.5579 9.12024 27.3093 8.86323 27.0607C8.83121 27.031 8.79919 27.0013 8.7662 26.9706C8.50599 26.7259 8.27552 26.4666 8.04875 26.1926C7.94117 26.0654 7.82956 25.9455 7.71357 25.8256C6.93292 24.9823 6.32728 23.9269 5.8342 22.9057C5.81214 22.8602 5.79008 22.8146 5.76735 22.7676C5.69725 22.6219 5.62787 22.4759 5.55883 22.3298C5.53689 22.2836 5.51494 22.2374 5.49233 22.1899C5.47225 22.1467 5.45217 22.1035 5.43148 22.0591C5.41352 22.0207 5.39555 21.9823 5.37705 21.9428C5.33854 21.8404 5.33854 21.8404 5.33854 21.6806Z" fill="currentColor"/>
<path d="M34.1969 7.67076C34.3975 7.7013 34.4879 7.77364 34.6272 7.9138C34.6616 7.94793 34.696 7.98206 34.7315 8.01722C36.0226 9.37661 37.0138 10.9142 37.6528 12.6581C37.6712 12.7082 37.6897 12.7584 37.7088 12.8101C37.8024 13.0789 37.8526 13.3 37.8318 13.5836C37.7251 13.4288 37.6795 13.3129 37.6237 13.1367C37.1527 11.6868 36.5017 10.3547 35.5187 9.1623C35.4604 9.09061 35.4604 9.09061 35.401 9.01747C35.1428 8.70546 34.8695 8.40977 34.5865 8.11898C34.4469 7.97529 34.3148 7.83172 34.1969 7.67076Z" fill="currentColor"/>
<path d="M33.0955 2.66346C33.2165 2.81225 33.3098 2.96279 33.4018 3.12956C33.7251 3.64767 34.2709 3.9168 34.7893 4.2278C35.2038 4.4788 35.5846 4.75721 35.9593 5.06057C35.9924 5.08724 36.0256 5.11391 36.0598 5.14139C36.4474 5.45415 36.8208 5.77367 37.1709 6.12595C37.3101 6.26148 37.4501 6.39597 37.5917 6.52922C37.6391 6.57413 37.6865 6.61904 37.7354 6.6653C37.7834 6.71049 37.8314 6.75567 37.8808 6.80222C37.997 6.92499 37.997 6.92499 38.052 7.0848C37.8397 7.00033 37.7033 6.86825 37.5426 6.71192C37.4689 6.64105 37.4689 6.64105 37.3937 6.56875C37.281 6.44557 37.281 6.44557 37.281 6.33903C37.2447 6.33903 37.2083 6.33903 37.1709 6.33903C37.0763 6.25299 36.985 6.16364 36.8955 6.07269C36.0518 5.22079 35.0676 4.56875 34.0364 3.94566C33.7659 3.77012 33.5337 3.59594 33.3571 3.32599C33.3306 3.28637 33.3042 3.24675 33.277 3.20593C33.152 3.00238 33.0955 2.90782 33.0955 2.66346Z" fill="currentColor"/>
<path d="M11.6169 0.106539C11.6169 0.159275 11.6169 0.212012 11.6169 0.266346C11.5241 0.263565 11.5241 0.263565 11.4295 0.260728C10.7895 0.244528 10.7895 0.244528 10.185 0.426154C10.1389 0.445724 10.0928 0.465294 10.0454 0.485457C9.04812 0.935241 8.15277 1.58414 7.31623 2.26748C7.11685 2.42874 6.91293 2.58398 6.70784 2.73837C6.59969 2.8167 6.59969 2.8167 6.55015 2.9298C6.5138 2.91223 6.47746 2.89465 6.44001 2.87654C6.50851 2.67777 6.59102 2.62925 6.76012 2.50032C6.81542 2.45775 6.87073 2.41517 6.92771 2.37131C6.95655 2.34917 6.9854 2.32702 7.01513 2.3042C7.14953 2.19936 7.27961 2.08966 7.41067 1.98095C8.30625 1.25983 9.32018 0.581338 10.4053 0.159808C10.4761 0.130967 10.4761 0.130967 10.5483 0.101545C10.923 -0.0316797 11.2341 0.018103 11.6169 0.106539Z" fill="currentColor"/>
<path d="M39.7593 23.5982C39.7957 23.5982 39.832 23.5982 39.8695 23.5982C39.7927 23.8529 39.6783 24.0694 39.5356 24.2941C39.5137 24.3289 39.4918 24.3637 39.4692 24.3995C38.9872 25.1576 38.4434 25.8804 37.816 26.532C37.7185 26.6289 37.7185 26.6289 37.6665 26.7411C37.6302 26.7411 37.5938 26.7411 37.5564 26.7411C37.5429 26.7715 37.5294 26.8019 37.5155 26.8333C37.4341 26.9754 37.3382 27.0707 37.2186 27.1848C37.1743 27.2273 37.1299 27.2699 37.0842 27.3138C37.0378 27.3577 36.9915 27.4017 36.9437 27.4469C36.8969 27.4917 36.8501 27.5365 36.8019 27.5826C36.6865 27.693 36.5708 27.8031 36.4549 27.913C36.4186 27.8955 36.3822 27.8779 36.3448 27.8598C36.4049 27.6854 36.44 27.6555 36.5823 27.5435C37.0538 27.1563 37.4931 26.7229 37.8868 26.2617C37.9098 26.2352 37.9327 26.2087 37.9564 26.1814C38.5783 25.4606 39.1142 24.691 39.5875 23.8715C39.6419 23.7788 39.7002 23.6882 39.7593 23.5982Z" fill="currentColor"/>
<path d="M28.7997 7.99038C28.9491 8.13482 29.0141 8.30141 29.102 8.48561C29.3045 8.83579 29.5752 9.04626 29.9046 9.27882C30.3135 9.5744 30.6903 9.88495 31.0577 10.2277C31.101 10.2668 31.1444 10.306 31.189 10.3463C31.654 10.7773 32.0621 11.2834 32.3795 11.8258C32.3795 11.8609 32.3795 11.8961 32.3795 11.9323C32.3432 11.9323 32.3068 11.9323 32.2694 11.9323C32.2003 11.8405 32.1357 11.7454 32.0732 11.6493C31.4785 10.7696 30.7151 10.0245 29.8339 9.41179C29.4145 9.11672 28.9646 8.79005 28.8161 8.28481C28.7997 8.16683 28.7997 8.16683 28.7997 7.99038Z" fill="currentColor"/>
<path d="M44 24.8767C44.0588 25.0205 44.0588 25.0799 44.0027 25.2274C43.9751 25.2791 43.9474 25.3308 43.9189 25.384C43.8878 25.4422 43.8568 25.5005 43.8249 25.5604C43.7904 25.6233 43.7558 25.6862 43.7211 25.749C43.6952 25.7968 43.6952 25.7968 43.6687 25.8455C43.1917 26.722 42.6516 27.5607 42.0173 28.3392C41.9526 28.4204 41.888 28.5017 41.8235 28.5831C41.7539 28.6705 41.6843 28.7579 41.6146 28.8453C41.5816 28.8867 41.5486 28.9282 41.5146 28.971C41.3611 29.1622 41.21 29.3459 41.026 29.5111C40.9897 29.4935 40.9533 29.476 40.9159 29.4579C40.9479 29.4216 40.98 29.3853 41.0131 29.348C42.2146 27.9738 43.1539 26.4751 44 24.8767Z" fill="currentColor"/>
<path d="M18.0054 19.3367C18.1896 19.5096 18.3537 19.687 18.5114 19.8827C19.1897 20.6864 20.1109 21.2445 21.1446 21.5207C21.2254 21.5435 21.3062 21.5664 21.387 21.5894C21.4485 21.6069 21.4485 21.6069 21.5112 21.6248C21.5734 21.6425 21.5734 21.6425 21.6368 21.6606C21.6797 21.6728 21.7226 21.685 21.7668 21.6976C21.8715 21.7274 21.9761 21.7573 22.0808 21.7871C22.0808 21.8047 22.0808 21.8222 22.0808 21.8404C21.2781 21.9097 20.5064 21.5139 19.8228 21.1479C19.7684 21.1189 19.714 21.0899 19.658 21.06C19 20.6819 18.4031 20.1316 18.0054 19.4965C18.0054 19.4438 18.0054 19.391 18.0054 19.3367Z" fill="currentColor"/>
<path d="M20.6489 11.2931C20.6035 11.3164 20.558 11.3398 20.5112 11.3638C20.1244 11.5693 19.7604 11.7904 19.4063 12.0455C19.3696 12.0716 19.333 12.0977 19.2952 12.1246C19.1233 12.2508 18.9757 12.3747 18.8403 12.5378C18.801 12.5841 18.7618 12.6304 18.7213 12.6781C18.685 12.6781 18.6486 12.6781 18.6112 12.6781C18.5973 12.7076 18.5834 12.7371 18.569 12.7675C18.4901 12.9111 18.3956 13.0342 18.2945 13.1641C17.9885 13.568 17.7332 13.9619 17.5571 14.4343C17.5097 14.5425 17.5097 14.5425 17.3996 14.649C17.4248 14.3408 17.4896 14.108 17.6474 13.8367C17.6669 13.8023 17.6865 13.768 17.7066 13.7326C18.1154 13.0317 19.6236 10.9955 20.6489 11.2931Z" fill="currentColor"/>
<path d="M10.5154 24.1842C10.5518 24.1842 10.5881 24.1842 10.6256 24.1842C10.6976 24.2625 10.7657 24.3443 10.8321 24.4272C11.7187 25.4974 12.7802 26.4683 14.0401 27.114C13.9028 27.1637 13.841 27.1756 13.703 27.1213C12.5778 26.4404 11.5588 25.5617 10.7357 24.5571C10.6948 24.5098 10.6539 24.4626 10.6118 24.4139C10.5161 24.2916 10.5154 24.2907 10.5154 24.1842Z" fill="currentColor"/>
<path d="M25.3852 11.2931C25.5488 11.3106 25.7123 11.3282 25.8809 11.3463C25.8809 11.3991 25.8809 11.4518 25.8809 11.5061C25.9198 11.5193 25.9588 11.5324 25.999 11.5459C27.0936 12.0108 27.9859 13.1412 28.4693 14.1696C28.4693 14.2223 28.4693 14.2751 28.4693 14.3294C28.433 14.3294 28.3966 14.3294 28.3592 14.3294C28.3364 14.2824 28.3137 14.2353 28.2903 14.1869C27.6552 12.8987 26.6921 12.0255 25.3852 11.3996C25.3852 11.3644 25.3852 11.3293 25.3852 11.2931Z" fill="currentColor"/>
<path d="M38.1071 15.0752C38.1253 15.0752 38.1435 15.0752 38.1622 15.0752C38.2547 15.3515 38.2919 15.6014 38.3033 15.8909C38.3047 16.157 38.3047 16.157 38.3825 16.4069C38.3461 16.4069 38.3098 16.4069 38.2723 16.4069C38.2732 16.436 38.2741 16.4651 38.275 16.495C38.2996 17.4618 38.2026 18.3907 37.997 19.3367C37.9606 19.3367 37.9243 19.3367 37.8868 19.3367C37.9119 19.1425 37.937 18.9483 37.9621 18.7541C37.9672 18.7129 37.9723 18.6718 37.9776 18.6294C37.9918 18.5231 38.0079 18.417 38.0252 18.3111C38.1269 17.6412 38.1195 16.9763 38.114 16.3004C38.1134 16.1811 38.1129 16.0618 38.1125 15.9425C38.1113 15.6534 38.1095 15.3643 38.1071 15.0752Z" fill="currentColor"/>
<path d="M8.14728 19.5498C8.26854 19.6671 8.28819 19.7273 8.33508 19.8838C8.34957 19.9306 8.36405 19.9774 8.37897 20.0256C8.39452 20.0762 8.41007 20.1269 8.42608 20.179C8.75779 21.221 9.20968 22.2077 9.84422 23.1111C9.8658 23.1488 9.88738 23.1865 9.90962 23.2254C9.89145 23.2605 9.87327 23.2957 9.85455 23.3319C9.63813 23.1479 9.5153 22.9375 9.37954 22.696C9.35581 22.654 9.33207 22.612 9.30762 22.5687C8.92174 21.8775 8.56711 21.1803 8.30561 20.4354C8.28121 20.3665 8.28121 20.3665 8.25631 20.2963C8.16971 20.0372 8.12983 19.822 8.14728 19.5498Z" fill="currentColor"/>
<path d="M6.10957 3.08961C6.16409 3.10719 6.21861 3.12477 6.27479 3.14288C6.20376 3.21616 6.13011 3.28712 6.05449 3.35596C6.01814 3.35596 5.9818 3.35596 5.94435 3.35596C5.94435 3.39112 5.94435 3.42627 5.94435 3.4625C5.908 3.4625 5.87165 3.4625 5.8342 3.4625C5.8342 3.49765 5.8342 3.53281 5.8342 3.56903C5.74417 3.6416 5.65403 3.71405 5.56335 3.78586C5.38608 3.94477 5.24647 4.12951 5.10168 4.31605C5.0708 4.3508 5.03992 4.38554 5.0081 4.42134C4.97175 4.42134 4.9354 4.42134 4.89796 4.42134C4.88049 4.46306 4.88049 4.46306 4.86267 4.50561C4.75643 4.6884 4.61469 4.83436 4.47114 4.99066C4.24574 5.23946 4.03891 5.48643 3.86167 5.77055C3.79649 5.85961 3.79649 5.85961 3.63127 5.96615C3.7467 5.29781 4.58953 4.60619 5.05914 4.12381C5.17268 4.00688 5.28104 3.89188 5.37856 3.76193C5.4017 3.73343 5.42484 3.70493 5.44869 3.67557C5.48504 3.67557 5.52138 3.67557 5.55883 3.67557C5.57254 3.6446 5.58624 3.61363 5.60035 3.58173C5.67871 3.44559 5.7654 3.36244 5.88583 3.25941C5.92381 3.2261 5.96179 3.1928 6.00093 3.15849C6.03678 3.13576 6.07263 3.11303 6.10957 3.08961Z" fill="currentColor"/>
<path d="M11.672 0.213077C12.0818 0.250829 12.3489 0.465118 12.6263 0.743479C12.9792 1.16056 13.1265 1.67106 13.1004 2.20401C13.0444 2.65828 12.8589 3.0624 12.5531 3.40923C12.5168 3.39165 12.4804 3.37407 12.443 3.35596C12.506 3.2785 12.506 3.2785 12.5703 3.19948C12.9221 2.71139 12.9442 2.17624 12.8836 1.59808C12.785 1.11507 12.4429 0.711677 12.0252 0.440095C11.9091 0.377206 11.7933 0.319069 11.672 0.266346C11.672 0.248767 11.672 0.231188 11.672 0.213077Z" fill="currentColor"/>
<path d="M11.0662 8.15018C11.1025 8.16776 11.1389 8.18534 11.1763 8.20345C11.145 8.24019 11.1137 8.27693 11.0814 8.31478C10.8388 8.60043 10.6003 8.88745 10.3728 9.18456C10.3472 9.21237 10.3215 9.24018 10.2951 9.26884C10.2588 9.26884 10.2224 9.26884 10.185 9.26884C10.1726 9.30427 10.1601 9.3397 10.1473 9.37621C10.0529 9.58321 9.92632 9.76072 9.79603 9.94802C9.48802 10.3982 9.22554 10.8651 8.97337 11.3463C8.92698 11.2196 8.9111 11.1537 8.95649 11.0246C8.98785 10.9678 8.98785 10.9678 9.01984 10.9098C9.05441 10.8464 9.05441 10.8464 9.08968 10.7817C9.11491 10.7373 9.14014 10.6929 9.16613 10.6472C9.19157 10.6015 9.21701 10.5559 9.24323 10.5089C9.4261 10.1855 9.6242 9.88228 9.85455 9.58845C9.92569 9.49191 9.99683 9.39536 10.068 9.2988C10.3746 8.89276 10.694 8.50197 11.0662 8.15018Z" fill="currentColor"/>
<path d="M7.87191 14.4892C7.89008 14.4892 7.90826 14.4892 7.92698 14.4892C7.92156 14.5531 7.92156 14.5531 7.91602 14.6182C7.86518 15.2749 7.85355 15.9318 7.84093 16.59C7.83855 16.707 7.83614 16.824 7.83372 16.9409C7.82789 17.2246 7.82228 17.5082 7.81684 17.7919C7.60636 17.4154 7.64094 16.9711 7.64129 16.5534C7.64133 16.4978 7.64138 16.4422 7.64142 16.3849C7.64438 16.0152 7.66241 15.6495 7.69981 15.2816C7.70412 15.2385 7.70844 15.1953 7.71289 15.1509C7.73954 14.9177 7.7851 14.7101 7.87191 14.4892Z" fill="currentColor"/>
<path d="M28.6345 14.9686C28.6709 14.9686 28.7072 14.9686 28.7447 14.9686C29.0361 16.0156 29.0549 17.2716 28.5794 18.2713C28.5249 18.2977 28.5249 18.2977 28.4693 18.3246C28.4757 18.2953 28.4821 18.2661 28.4886 18.2359C28.5178 18.1023 28.5469 17.9688 28.576 17.8352C28.5861 17.7891 28.5961 17.7431 28.6064 17.6957C28.6259 17.6063 28.6452 17.517 28.6644 17.4276C28.6829 17.3429 28.7029 17.2585 28.7236 17.1743C28.7548 16.9844 28.7552 16.7952 28.755 16.6033C28.755 16.5615 28.7551 16.5197 28.7551 16.4766C28.7518 16.1173 28.7125 15.7689 28.6586 15.4137C28.6382 15.2623 28.6297 15.121 28.6345 14.9686Z" fill="currentColor"/>
<path d="M30.655 5.56996C30.6943 5.56941 30.7335 5.56886 30.774 5.56829C31.052 5.57279 31.2492 5.63402 31.4983 5.75307C31.4802 5.78823 31.462 5.82339 31.4433 5.85961C31.3969 5.84244 31.3505 5.82527 31.3028 5.80759C30.7667 5.65374 30.1728 5.71145 29.6809 5.96615C29.4962 6.08695 29.3365 6.20098 29.2405 6.39896C29.1853 6.49884 29.1853 6.49884 29.02 6.55211C28.9526 6.71237 28.9526 6.71237 28.9099 6.87172C28.8657 6.74942 28.8455 6.68326 28.8922 6.5596C29.1634 6.14479 29.5246 5.79243 30.0107 5.62635C30.2265 5.58329 30.435 5.57253 30.655 5.56996Z" fill="currentColor"/>
<path d="M38.8781 2.34384C39.4402 2.58833 39.8951 3.09866 40.3231 3.51739C40.4141 3.6064 40.5055 3.69496 40.597 3.78346C40.6561 3.8409 40.7152 3.89837 40.7743 3.95586C40.8011 3.98184 40.8279 4.00781 40.8555 4.03458C41.0341 4.20966 41.2054 4.38339 41.3564 4.58115C41.3383 4.63388 41.3201 4.68662 41.3014 4.74096C41.2539 4.69117 41.2064 4.64139 41.1574 4.5901C40.7567 4.17217 40.3499 3.7606 39.9349 3.35596C39.8928 3.31463 39.8508 3.27331 39.8075 3.23073C39.5467 2.97795 39.2756 2.75243 38.9808 2.53715C38.9469 2.50852 38.9131 2.47988 38.8781 2.45038C38.8781 2.41522 38.8781 2.38007 38.8781 2.34384Z" fill="currentColor"/>
<path d="M33.0955 19.4965C33.1663 19.7022 33.1206 19.7506 33.0249 19.9426C32.9825 20.028 32.9825 20.028 32.9393 20.1151C32.909 20.1747 32.8788 20.2342 32.8476 20.2956C32.8048 20.3824 32.8048 20.3824 32.7611 20.471C32.496 20.9996 32.1858 21.4907 31.8116 21.9536C31.788 21.9835 31.7643 22.0134 31.74 22.0443C31.5677 22.2596 31.5677 22.2596 31.4433 22.3198C31.4917 22.0876 31.6226 21.9371 31.7703 21.7538C32.2654 21.1194 32.6343 20.4194 32.97 19.6961C33.0404 19.5498 33.0404 19.5498 33.0955 19.4965Z" fill="currentColor"/>
<path d="M32.8752 30.2036C32.9297 30.2212 32.9842 30.2388 33.0404 30.2569C33.0157 30.277 32.9911 30.2971 32.9657 30.3179C32.5828 30.6551 32.354 31.0835 32.3244 31.5886C32.3199 31.6523 32.3153 31.7161 32.3107 31.7817C32.3132 32.0973 32.4092 32.4034 32.4896 32.7073C32.4351 32.6897 32.3806 32.6721 32.3244 32.654C32.0858 32.1581 32.0705 31.5778 32.2487 31.0593C32.3937 30.7242 32.6076 30.4555 32.8752 30.2036Z" fill="currentColor"/>
<path d="M42.2927 5.91288C42.4602 5.9827 42.5479 6.04371 42.6457 6.19233C42.6692 6.22766 42.6928 6.26299 42.717 6.29939C42.754 6.35692 42.754 6.35692 42.7918 6.41561C42.8179 6.4554 42.844 6.49519 42.8709 6.53619C43.144 6.95651 43.4033 7.38522 43.6546 7.81808C43.7036 7.90145 43.754 7.98408 43.8053 8.06612C43.8311 8.10814 43.8568 8.15017 43.8834 8.19346C43.907 8.23116 43.9307 8.26886 43.955 8.3077C44.009 8.43836 43.9938 8.49955 43.9449 8.62961C43.9264 8.59751 43.9078 8.56542 43.8888 8.53235C43.5671 7.97578 43.2445 7.41993 42.9019 6.87505C42.8786 6.83771 42.8553 6.80036 42.8313 6.76188C42.6858 6.5327 42.5276 6.31893 42.3552 6.10794C42.2927 6.01942 42.2927 6.01942 42.2927 5.91288Z" fill="currentColor"/>
<path d="M14.4807 5.80634C14.4221 5.83477 14.3634 5.8632 14.303 5.89249C13.5607 6.25847 12.9119 6.6854 12.2873 7.21847C12.155 7.33056 12.0613 7.4032 11.8923 7.45768C12.196 6.78447 13.2479 6.26372 13.8921 5.92287C13.926 5.90457 13.9599 5.88627 13.9949 5.86741C14.184 5.77151 14.2787 5.74398 14.4807 5.80634Z" fill="currentColor"/>
<path d="M36.1245 27.9663C36.179 27.9839 36.2335 28.0015 36.2897 28.0196C36.1807 28.0723 36.1807 28.0723 36.0694 28.1261C36.0694 28.1613 36.0694 28.1964 36.0694 28.2327C35.9704 28.315 35.8712 28.3906 35.7665 28.4657C35.7348 28.4888 35.7032 28.5119 35.6705 28.5357C35.6016 28.5858 35.5326 28.6358 35.4635 28.6857C35.3503 28.7676 35.2377 28.8504 35.1252 28.9333C35.0487 28.9894 34.9722 29.0455 34.8957 29.1016C34.8602 29.1278 34.8247 29.1539 34.7881 29.1809C34.2579 29.5669 34.2579 29.5669 34.0317 29.6709C33.9954 29.6533 33.959 29.6358 33.9216 29.6177C34.1116 29.4159 34.3287 29.2751 34.5618 29.1249C34.9674 28.8594 35.3497 28.5759 35.7237 28.2697C35.7977 28.2102 35.7977 28.2102 35.8732 28.1494C35.9174 28.1131 35.9617 28.0768 36.0072 28.0394C36.0653 28.0032 36.0653 28.0032 36.1245 27.9663Z" fill="currentColor"/>
<path d="M26.707 20.6684C26.6243 20.8912 26.4618 20.9901 26.2629 21.1112C26.2294 21.1319 26.1958 21.1526 26.1613 21.1739C25.7609 21.4117 25.3295 21.5777 24.8895 21.7338C24.8033 21.765 24.8033 21.765 24.7153 21.7969C24.5559 21.8413 24.4283 21.8513 24.2631 21.847C24.2149 21.8461 24.1668 21.8451 24.1172 21.8441C24.0813 21.8429 24.0454 21.8416 24.0084 21.8404C24.1801 21.7432 24.355 21.7012 24.5474 21.6568C24.9886 21.5528 25.3831 21.407 25.7845 21.2011C25.8277 21.179 25.871 21.1569 25.9155 21.1341C26.1099 21.0308 26.2863 20.9249 26.4548 20.785C26.5968 20.6684 26.5968 20.6684 26.707 20.6684Z" fill="currentColor"/>
<path d="M38.5477 31.8017C38.468 31.9877 38.3714 32.0802 38.2067 32.2014C38.1597 32.2362 38.1126 32.2711 38.0641 32.3069C38.0135 32.3435 37.963 32.38 37.9109 32.4176C37.8593 32.4551 37.8078 32.4927 37.7546 32.5313C37.4267 32.7677 37.0952 32.998 36.7544 33.2167C36.697 33.2543 36.697 33.2543 36.6384 33.2926C36.3735 33.458 36.3735 33.458 36.223 33.4322C36.1905 33.4215 36.158 33.4108 36.1245 33.3998C36.1544 33.3813 36.1843 33.3628 36.2151 33.3438C36.9515 32.888 37.6562 32.4187 38.3296 31.8781C38.4376 31.8017 38.4376 31.8017 38.5477 31.8017Z" fill="currentColor"/>
<path d="M12.7734 19.39C12.9502 19.504 12.9693 19.536 13.0419 19.7179C13.0606 19.7632 13.0794 19.8084 13.0987 19.855C13.1186 19.9037 13.1384 19.9524 13.1589 20.0026C13.4172 20.611 13.7288 21.2191 14.1716 21.7238C14.2009 21.7623 14.2302 21.8007 14.2604 21.8404C14.2422 21.8931 14.2241 21.9458 14.2053 22.0002C13.686 21.4163 13.3135 20.7341 12.9868 20.0359C12.9653 19.9899 12.9438 19.944 12.9217 19.8967C12.7734 19.5709 12.7734 19.5709 12.7734 19.39Z" fill="currentColor"/>
<path d="M0.21673 14.2229C0.234904 14.2229 0.253078 14.2229 0.271803 14.2229C0.277895 14.507 0.27096 14.7869 0.245988 15.0702C0.203265 15.6282 0.196934 16.1872 0.185751 16.7465C0.183367 16.8586 0.180965 16.9707 0.178544 17.0828C0.172712 17.3546 0.167117 17.6265 0.161657 17.8984C0.143482 17.8984 0.125308 17.8984 0.106583 17.8984C0.0958276 17.5091 0.0860806 17.1197 0.0770031 16.7303C0.073806 16.598 0.0703861 16.4658 0.0667306 16.3336C0.0614871 16.1426 0.0570707 15.9515 0.052801 15.7604C0.0510278 15.7022 0.0492546 15.644 0.0474278 15.5841C0.038406 15.1255 0.0657587 14.6609 0.21673 14.2229Z" fill="currentColor"/>
<path d="M45.6522 19.6031C45.6703 19.6031 45.6885 19.6031 45.7072 19.6031C45.7365 20.1058 45.6516 20.546 45.5214 21.0313C45.5039 21.099 45.4864 21.1667 45.4684 21.2364C45.3881 21.5459 45.3031 21.8535 45.2116 22.16C45.1752 22.16 45.1389 22.16 45.1014 22.16C45.1412 21.8252 45.227 21.5068 45.3148 21.1812C45.4534 20.6581 45.5667 20.1365 45.6522 19.6031Z" fill="currentColor"/>
<path d="M24.3388 10.8669C24.3388 10.9021 24.3388 10.9372 24.3388 10.9734C24.2823 10.9682 24.2823 10.9682 24.2247 10.9628C23.7537 10.9217 23.2832 10.9037 22.8105 10.8902C22.7339 10.8879 22.6574 10.8856 22.5808 10.8832C22.3958 10.8777 22.2107 10.8722 22.0257 10.8669C22.0439 10.8318 22.0621 10.7966 22.0808 10.7604C22.8271 10.6458 23.6026 10.7116 24.3388 10.8669Z" fill="currentColor"/>
<path d="M18.6663 12.5715C18.6844 12.6067 18.7026 12.6418 18.7213 12.6781C18.685 12.6781 18.6486 12.6781 18.6112 12.6781C18.5973 12.7076 18.5834 12.7371 18.569 12.7675C18.4901 12.9111 18.3956 13.0342 18.2945 13.1641C17.9885 13.568 17.7332 13.9619 17.5571 14.4343C17.5097 14.5425 17.5097 14.5425 17.3996 14.649C17.4248 14.3408 17.4896 14.108 17.6474 13.8367C17.6763 13.7856 17.6763 13.7856 17.7057 13.7334C17.9033 13.3931 18.1417 13.0907 18.3909 12.7846C18.4272 12.7319 18.4636 12.6791 18.501 12.6248C18.5556 12.6072 18.6101 12.5896 18.6663 12.5715Z" fill="currentColor"/>
<path d="M36.0143 33.5063C36.0143 33.5415 36.0143 33.5766 36.0143 33.6128C35.3659 33.8952 34.6912 34.1168 33.9766 33.9325C33.9766 33.8973 33.9766 33.8621 33.9766 33.8259C33.9403 33.8083 33.9039 33.7908 33.8665 33.7727C33.9138 33.7739 33.9138 33.7739 33.9622 33.7752C34.9082 33.8119 34.9082 33.8119 35.8042 33.5542C35.9042 33.5063 35.9042 33.5063 36.0143 33.5063Z" fill="currentColor"/>
<path d="M41.6318 15.4481C41.65 15.4481 41.6682 15.4481 41.6869 15.4481C41.6897 15.8081 41.6916 16.1681 41.6929 16.5281C41.6935 16.6504 41.6942 16.7726 41.6952 16.8948C41.6965 17.0715 41.6972 17.2482 41.6976 17.4248C41.6982 17.4786 41.6988 17.5324 41.6994 17.5879C41.6994 17.967 41.6518 18.3256 41.5767 18.6975C41.5586 18.6975 41.5404 18.6975 41.5217 18.6975C41.5113 18.0049 41.5437 17.315 41.5767 16.6233C41.5821 16.5089 41.5874 16.3945 41.5927 16.2801C41.6055 16.0027 41.6186 15.7254 41.6318 15.4481Z" fill="currentColor"/>
<path d="M2.97039 6.87172C2.97039 7.06583 2.91489 7.14468 2.81528 7.31223C2.78242 7.36806 2.74956 7.4239 2.7157 7.48142C2.68048 7.5406 2.64526 7.59979 2.60897 7.66077C2.32882 8.13728 2.0574 8.61399 1.81385 9.10903C1.77492 9.02621 1.77492 9.02621 1.75878 8.89595C1.81387 8.76251 1.87174 8.64258 1.94121 8.51641C1.96089 8.47965 1.98058 8.4429 2.00086 8.40503C2.06614 8.2841 2.13262 8.16383 2.19937 8.04364C2.223 8.00071 2.24663 7.95778 2.27098 7.91354C2.34285 7.78344 2.41549 7.65377 2.4885 7.52427C2.5225 7.46338 2.5225 7.46338 2.55719 7.40127C2.67459 7.19643 2.78536 7.0277 2.97039 6.87172Z" fill="currentColor"/>
<path d="M28.7997 7.99038C28.9491 8.13482 29.0141 8.30141 29.102 8.48561C29.3114 8.8477 29.5984 9.06427 29.9391 9.30546C30.0232 9.36536 30.1072 9.42549 30.191 9.48587C30.2463 9.52508 30.2463 9.52508 30.3028 9.56508C30.3969 9.64172 30.3969 9.64172 30.507 9.80153C29.9556 9.70181 29.3493 9.10846 29.0166 8.68953C28.8577 8.45428 28.7997 8.27045 28.7997 7.99038Z" fill="currentColor"/>
<path d="M41.4115 18.7507C41.4479 18.7507 41.4842 18.7507 41.5217 18.7507C41.5189 19.518 41.3319 20.3336 41.026 21.0413C41.0078 21.0413 40.9897 21.0413 40.9709 21.0413C41.0049 20.6802 41.0729 20.3383 41.1602 19.9859C41.2595 19.5757 41.3505 19.1682 41.4115 18.7507Z" fill="currentColor"/>
<path d="M45.2666 11.9856C45.4273 12.1151 45.4645 12.2217 45.5063 12.4178C45.5238 12.4977 45.5238 12.4977 45.5416 12.5793C45.5531 12.635 45.5646 12.6906 45.5764 12.748C45.5884 12.803 45.6003 12.8581 45.6126 12.9148C45.6452 13.0665 45.6765 13.2184 45.7072 13.3706C45.7189 13.4286 45.7307 13.4866 45.7427 13.5464C45.766 13.7177 45.7676 13.8837 45.7657 14.0564C45.7652 14.1178 45.7647 14.1792 45.7642 14.2424C45.7636 14.2887 45.763 14.335 45.7623 14.3827C45.7441 14.3827 45.726 14.3827 45.7072 14.3827C45.7017 14.349 45.6962 14.3153 45.6905 14.2805C45.5884 13.6616 45.4832 13.0457 45.3338 12.4356C45.2963 12.2813 45.2666 12.1447 45.2666 11.9856Z" fill="currentColor"/>
<path d="M12.0575 29.5644C12.6165 29.6422 13.0799 30.0688 13.4343 30.47C13.5899 30.6733 13.6872 30.8493 13.6546 31.1092C13.549 30.9815 13.4675 30.8573 13.3861 30.713C13.1139 30.2478 12.6041 29.964 12.1504 29.6815C12.1197 29.6605 12.0891 29.6394 12.0575 29.6177C12.0575 29.6001 12.0575 29.5825 12.0575 29.5644Z" fill="currentColor"/>
<path d="M2.97039 26.2617C3.00674 26.2617 3.04309 26.2617 3.08054 26.2617C3.1574 26.3769 3.22797 26.492 3.29739 26.6113C3.56061 27.0512 3.86464 27.4553 4.182 27.8598C4.16383 27.8949 4.14565 27.9301 4.12693 27.9663C3.89544 27.7628 3.7265 27.5352 3.55146 27.2848C3.45991 27.1588 3.38894 27.0767 3.24576 27.0075C3.23894 26.969 3.23213 26.9306 3.22511 26.8909C3.18172 26.7021 3.08137 26.5808 2.97039 26.4215C2.97039 26.3688 2.97039 26.316 2.97039 26.2617Z" fill="currentColor"/>
<path d="M12.3328 3.4625C12.3601 3.5416 12.3601 3.5416 12.3879 3.6223C11.9695 3.90488 11.5486 4.18326 11.1227 4.45523C10.9846 4.54365 10.8501 4.63108 10.7222 4.73305C10.6903 4.75324 10.6584 4.77343 10.6256 4.79423C10.571 4.77665 10.5165 4.75907 10.4604 4.74096C10.9213 4.40399 11.3863 4.08443 11.8816 3.79608C12.0509 3.6968 12.1969 3.60146 12.3328 3.4625Z" fill="currentColor"/>
<path d="M34.3621 0.266346C34.3276 0.283101 34.2931 0.299856 34.2576 0.317118C34.2126 0.339916 34.1676 0.362713 34.1212 0.386202C34.0765 0.40845 34.0317 0.430698 33.9857 0.453621C33.8517 0.542511 33.8227 0.605725 33.7563 0.745769C33.669 0.827129 33.669 0.827129 33.5705 0.902247C33.4071 1.03189 33.2763 1.16628 33.1505 1.33173C33.1769 0.982895 33.3403 0.759283 33.6036 0.534565C34.0668 0.177706 34.0668 0.177706 34.3621 0.266346Z" fill="currentColor"/>
<path d="M15.8575 5.75307C16.1572 5.72862 16.2829 5.83767 16.5066 6.01588C16.777 6.25995 17.1027 6.617 17.1339 6.98617C17.1345 7.09012 17.1298 7.19406 17.1242 7.29788C16.9909 7.16889 16.985 7.09539 16.9521 6.91833C16.9429 6.86985 16.9337 6.82137 16.9241 6.77143C16.9175 6.73421 16.9108 6.69699 16.9039 6.65865C16.8676 6.65865 16.8312 6.65865 16.7938 6.65865C16.7756 6.6136 16.7574 6.56855 16.7387 6.52214C16.5354 6.18419 16.2267 5.95811 15.8575 5.80634C15.8575 5.78876 15.8575 5.77118 15.8575 5.75307Z" fill="currentColor"/>
<path d="M17.1793 15.3415C17.1975 15.3415 17.2156 15.3415 17.2344 15.3415C17.2162 15.9568 17.198 16.572 17.1793 17.2059C17.1611 17.2059 17.1429 17.2059 17.1242 17.2059C16.9699 16.6368 16.8976 15.8863 17.1793 15.3415Z" fill="currentColor"/>
<path d="M0.161657 18.1648C0.179831 18.1648 0.198006 18.1648 0.21673 18.1648C0.256219 18.4026 0.295427 18.6405 0.33438 18.8784C0.347659 18.9593 0.361014 19.0402 0.374448 19.121C0.393786 19.2375 0.412849 19.354 0.43186 19.4705C0.437884 19.5064 0.443907 19.5423 0.450113 19.5793C0.480392 19.7667 0.498692 19.9461 0.492097 20.1357C0.314917 19.9495 0.275241 19.7522 0.233941 19.5098C0.223418 19.4508 0.223418 19.4508 0.212683 19.3905C0.145841 18.9815 0.146148 18.5776 0.161657 18.1648Z" fill="currentColor"/>
<path d="M16.3532 23.9711C16.4077 23.9711 16.4622 23.9711 16.5184 23.9711C16.8414 24.3242 16.9683 24.7901 17.0141 25.2496C16.9972 25.4246 16.9609 25.5609 16.9039 25.729C16.8857 25.729 16.8676 25.729 16.8488 25.729C16.8481 25.6749 16.8473 25.6208 16.8465 25.565C16.8282 24.956 16.687 24.4951 16.3532 23.9711Z" fill="currentColor"/>
<path d="M13.6546 11.7192C13.6728 11.772 13.6909 11.8247 13.7097 11.879C13.6485 11.9951 13.5848 12.1019 13.5135 12.212C13.2721 12.5994 13.1005 13.0005 12.9386 13.4238C12.9023 13.4238 12.866 13.4238 12.8285 13.4238C12.8594 13.1451 12.9552 12.9363 13.0867 12.6914C13.116 12.6356 13.116 12.6356 13.146 12.5786C13.3026 12.2845 13.4713 11.9986 13.6546 11.7192Z" fill="currentColor"/>
<path d="M11.672 0.213077C12.0817 0.250822 12.3473 0.464995 12.6256 0.742023C12.787 0.933941 12.9123 1.15027 12.9937 1.385C12.9755 1.43773 12.9574 1.49047 12.9386 1.54481C12.9023 1.54481 12.866 1.54481 12.8285 1.54481C12.8115 1.47669 12.7944 1.40857 12.7769 1.33839C12.6276 0.908547 12.2931 0.58489 11.8888 0.366226C11.8171 0.331832 11.745 0.298075 11.672 0.266346C11.672 0.248767 11.672 0.231188 11.672 0.213077Z" fill="currentColor"/>
<path d="M7.65162 15.8742C7.68797 15.8742 7.72431 15.8742 7.76176 15.8742C7.82751 17.194 7.82751 17.194 7.81684 17.7919C7.5771 17.4209 7.64481 16.9059 7.64818 16.4868C7.64842 16.4278 7.64867 16.3687 7.64893 16.3079C7.64957 16.1633 7.65047 16.0188 7.65162 15.8742Z" fill="currentColor"/>
<path d="M12.6082 13.9565C12.6264 13.9565 12.6446 13.9565 12.6633 13.9565C12.6714 14.2235 12.6436 14.4584 12.5841 14.7189C12.5211 15.0016 12.4763 15.2785 12.46 15.5675C12.4516 15.6138 12.4516 15.6138 12.443 15.6611C12.3885 15.6875 12.3885 15.6875 12.3328 15.7144C12.3012 15.1055 12.3992 14.5314 12.6082 13.9565Z" fill="currentColor"/>
<path d="M4.95303 12.4117C4.9712 12.4117 4.98938 12.4117 5.0081 12.4117C4.97247 12.7589 4.91921 13.0982 4.84977 13.4405C4.84089 13.4873 4.83202 13.5342 4.82287 13.5825C4.73804 14.0014 4.73804 14.0014 4.56752 14.1696C4.58203 13.6132 4.69283 12.9151 4.95303 12.4117Z" fill="currentColor"/>
<path d="M44 8.73614C44.1652 8.78941 44.1652 8.78941 44.2218 8.87672C44.2383 8.9139 44.2548 8.95107 44.2719 8.98938C44.2905 9.03055 44.3091 9.07171 44.3282 9.11413C44.3471 9.15749 44.366 9.20085 44.3855 9.24553C44.4044 9.28745 44.4232 9.32937 44.4427 9.37256C44.7975 10.167 44.7975 10.167 44.771 10.4408C44.6133 10.3645 44.6042 10.2528 44.5504 10.0986C44.5369 10.0588 44.5233 10.019 44.5094 9.97798C44.3605 9.55386 44.1889 9.14503 44 8.73614Z" fill="currentColor"/>
<path d="M32.6549 6.44557C32.9389 6.46842 33.1007 6.60978 33.3123 6.7785C33.3451 6.80398 33.3778 6.82945 33.4116 6.8557C33.6203 7.01851 33.8261 7.18474 34.0317 7.35115C34.0135 7.40388 33.9954 7.45662 33.9766 7.51095C33.8937 7.45143 33.8112 7.39141 33.7288 7.33117C33.6828 7.2978 33.6368 7.26442 33.5894 7.23004C33.5536 7.19969 33.5178 7.16934 33.481 7.13807C33.481 7.10291 33.481 7.06775 33.481 7.03153C33.4511 7.01841 33.4213 7.0053 33.3906 6.99179C33.231 6.90972 33.0901 6.81156 32.944 6.70859C32.8898 6.67061 32.8355 6.63264 32.7796 6.59352C32.7385 6.56227 32.6973 6.53103 32.6549 6.49884C32.6549 6.48126 32.6549 6.46368 32.6549 6.44557Z" fill="currentColor"/>
<path d="M33.1505 26.4215C33.1869 26.4215 33.2232 26.4215 33.2607 26.4215C33.1781 26.6568 32.9903 26.7534 32.7822 26.8776C32.7492 26.8982 32.7161 26.9188 32.6821 26.9399C32.385 27.1211 32.0816 27.3057 31.7186 27.2738C31.8389 27.1574 31.9077 27.136 32.0663 27.084C32.446 26.9434 32.8607 26.7019 33.1505 26.4215Z" fill="currentColor"/>
<path d="M22.191 21.8404C22.7362 21.8404 23.2814 21.8404 23.8431 21.8404C23.4808 22.074 22.9525 22.0418 22.5337 21.9762C22.4187 21.9515 22.3047 21.923 22.191 21.8936C22.191 21.876 22.191 21.8585 22.191 21.8404Z" fill="currentColor"/>
<path d="M17.0691 7.40441C17.0873 7.40441 17.1055 7.40441 17.1242 7.40441C17.2152 7.96137 17.1425 8.3341 16.8075 8.79607C16.7667 8.84661 16.7258 8.89715 16.6836 8.94922C16.6291 8.93164 16.5746 8.91406 16.5184 8.89595C16.5616 8.852 16.6047 8.80806 16.6492 8.76278C16.8169 8.57089 16.8495 8.39297 16.9039 8.15018C16.9403 8.11503 16.9766 8.07987 17.0141 8.04364C17.0396 7.88958 17.0396 7.88958 17.0485 7.71737C17.0526 7.659 17.0567 7.60064 17.061 7.5405C17.0637 7.49559 17.0664 7.45068 17.0691 7.40441Z" fill="currentColor"/>
<path d="M13.4894 32.654C13.5268 32.7462 13.5268 32.7462 13.5445 32.8671C13.3525 33.2183 13.0147 33.5193 12.6633 33.7194C12.5262 33.76 12.4225 33.7697 12.2778 33.7727C12.4269 33.6617 12.5795 33.5627 12.739 33.4664C13.0716 33.2531 13.2985 32.9924 13.4894 32.654Z" fill="currentColor"/>
<path d="M29.3505 26.315C29.3868 26.3512 29.4232 26.3875 29.4606 26.4248C29.5155 26.4772 29.5706 26.5293 29.6258 26.5813C29.6572 26.6115 29.6886 26.6416 29.7209 26.6727C30.0071 26.9329 30.3089 27.0804 30.6722 27.2205C30.6722 27.2381 30.6722 27.2557 30.6722 27.2738C30.3152 27.3283 30.069 27.1475 29.7911 26.9542C29.5929 26.7964 29.4331 26.6648 29.3539 26.4248C29.3528 26.3886 29.3516 26.3523 29.3505 26.315Z" fill="currentColor"/>
<path d="M1.15298 22.4796C1.27481 22.5974 1.30712 22.6787 1.36638 22.8337C1.38541 22.8829 1.40444 22.9321 1.42404 22.9827C1.44363 23.0342 1.46323 23.0857 1.48341 23.1388C1.52232 23.2402 1.56133 23.3416 1.60045 23.443C1.61763 23.4881 1.63481 23.5332 1.65251 23.5796C1.70062 23.7052 1.70062 23.7052 1.76868 23.8177C1.81385 23.9179 1.81385 23.9179 1.75878 24.0777C1.57088 23.8505 1.4736 23.6068 1.36294 23.3386C1.34267 23.2914 1.3224 23.2442 1.30152 23.1956C1.19912 22.949 1.12479 22.7504 1.15298 22.4796Z" fill="currentColor"/>
<path d="M11.6169 0.106539C11.6169 0.159275 11.6169 0.212012 11.6169 0.266346C11.5531 0.265728 11.4894 0.26511 11.4237 0.264473C11.3389 0.263973 11.2542 0.263488 11.1694 0.263016C11.1275 0.26257 11.0856 0.262124 11.0425 0.261664C10.8515 0.260867 10.6805 0.266367 10.4918 0.299847C10.445 0.30637 10.3983 0.312894 10.3502 0.319615C10.3139 0.284457 10.2775 0.249299 10.2401 0.213076C10.7365 0.0256653 11.0989 -0.0270631 11.6169 0.106539Z" fill="currentColor"/>
<path d="M11.3415 33.7727C11.4965 33.7792 11.6511 33.7778 11.8062 33.776C11.8465 33.7757 11.8868 33.7755 11.9283 33.7753C12.0264 33.7746 12.1246 33.7737 12.2227 33.7727C12.1125 33.9325 12.1125 33.9325 12.0162 33.9697C11.6108 34.0203 11.1749 33.9555 10.7908 33.8259C11.0075 33.6862 11.0887 33.7326 11.3415 33.7727Z" fill="currentColor"/>
<path d="M32.5447 32.8138C32.5811 32.8501 32.6174 32.8863 32.6549 32.9237C33.004 33.2604 33.3439 33.5514 33.8114 33.7194C33.8114 33.737 33.8114 33.7545 33.8114 33.7727C33.3937 33.7555 33.1088 33.5678 32.813 33.2895C32.5447 33.0054 32.5447 33.0054 32.5447 32.8138Z" fill="currentColor"/>
<path d="M31.3331 22.4263C31.1527 22.8237 30.7039 23.1899 30.3418 23.4384C30.2873 23.4384 30.2327 23.4384 30.1766 23.4384C30.36 23.2112 30.5555 23.0254 30.7826 22.8389C30.8866 22.7509 30.9826 22.6591 31.0784 22.5628C31.223 22.4263 31.223 22.4263 31.3331 22.4263Z" fill="currentColor"/>
<path d="M37.5013 1.33173C37.6781 1.36413 37.788 1.42059 37.9301 1.52629C37.9875 1.56857 37.9875 1.56857 38.0461 1.6117C38.0856 1.64127 38.125 1.67083 38.1656 1.70128C38.2443 1.75951 38.3229 1.8177 38.4016 1.87587C38.4363 1.90175 38.4709 1.92763 38.5066 1.9543C38.5915 2.01606 38.6796 2.07376 38.768 2.13077C38.7498 2.1835 38.7316 2.23624 38.7129 2.29057C38.5521 2.17096 38.3915 2.05102 38.231 1.93101C38.1629 1.88033 38.1629 1.88033 38.0933 1.82863C38.0493 1.79567 38.0053 1.76271 37.96 1.72875C37.9196 1.69862 37.8792 1.6685 37.8376 1.63745C37.7178 1.54176 37.6094 1.4396 37.5013 1.33173Z" fill="currentColor"/>
<path d="M33.0955 1.385C33.144 1.54364 33.1542 1.67547 33.1439 1.84028C33.1412 1.88526 33.1385 1.93024 33.1358 1.97658C33.1327 2.02307 33.1296 2.06955 33.1264 2.11745C33.1236 2.16476 33.1207 2.21207 33.1177 2.26082C33.1106 2.3773 33.1032 2.49375 33.0955 2.61019C33.0591 2.61019 33.0228 2.61019 32.9853 2.61019C32.8601 2.19759 32.8976 1.76768 33.0955 1.385Z" fill="currentColor"/>
<path d="M36.3448 22.9057C36.3998 23.0655 36.3998 23.0655 36.3084 23.2428C36.265 23.3129 36.2209 23.3825 36.1761 23.4518C36.1534 23.4876 36.1308 23.5234 36.1074 23.5604C35.9492 23.8062 35.7805 24.0272 35.5737 24.2375C35.5374 24.2199 35.5011 24.2023 35.4636 24.1842C35.5041 24.1276 35.5447 24.071 35.5864 24.0127C35.6407 23.9367 35.695 23.8607 35.7493 23.7847C35.7759 23.7476 35.8025 23.7105 35.8299 23.6723C36.009 23.4211 36.1799 23.166 36.3448 22.9057Z" fill="currentColor"/>
<path d="M4.51244 18.4311C4.56696 18.4575 4.56696 18.4575 4.62259 18.4844C4.6585 18.6272 4.68747 18.7659 4.71208 18.9106C4.71935 18.9516 4.72661 18.9927 4.73409 19.035C4.78155 19.3166 4.80391 19.5838 4.78781 19.8694C4.65467 19.6762 4.627 19.4943 4.58817 19.2701C4.58078 19.2308 4.5734 19.1914 4.56579 19.1509C4.52227 18.9073 4.50501 18.6782 4.51244 18.4311Z" fill="currentColor"/>
<path d="M40.255 10.4408C40.4041 10.5663 40.4646 10.6826 40.5327 10.8609C40.5521 10.9108 40.5714 10.9608 40.5913 11.0123C40.6208 11.0903 40.6208 11.0903 40.6508 11.1699C40.6711 11.2225 40.6914 11.2751 40.7122 11.3294C40.7622 11.4592 40.8117 11.5891 40.8608 11.7192C40.8063 11.7192 40.7517 11.7192 40.6956 11.7192C40.6215 11.5463 40.5483 11.3731 40.4753 11.1998C40.4543 11.1508 40.4332 11.1018 40.4116 11.0513C40.3917 11.0039 40.3718 10.9565 40.3514 10.9077C40.3329 10.8642 40.3144 10.8207 40.2954 10.7758C40.255 10.6538 40.255 10.6538 40.255 10.4408Z" fill="currentColor"/>
<path d="M14.6459 10.494C14.6641 10.5292 14.6823 10.5643 14.701 10.6006C14.6058 10.7182 14.5106 10.8359 14.4153 10.9535C14.3887 10.9864 14.3621 11.0193 14.3347 11.0531C14.1666 11.2605 13.9952 11.4644 13.8198 11.6659C13.8016 11.6308 13.7835 11.5956 13.7647 11.5594C13.8493 11.4415 13.9342 11.3239 14.0195 11.2065C14.043 11.1736 14.0665 11.1407 14.0907 11.1068C14.2569 10.8788 14.4371 10.6866 14.6459 10.494Z" fill="currentColor"/>
<path d="M35.5737 0.159807C35.5737 0.194965 35.5737 0.230123 35.5737 0.266346C35.1921 0.248767 34.8104 0.231188 34.4172 0.213076C34.4172 0.177919 34.4172 0.142761 34.4172 0.106538C34.8272 0.00738737 35.1754 0.0497194 35.5737 0.159807Z" fill="currentColor"/>
<path d="M17.3445 17.9517C17.4835 18.0862 17.5187 18.2092 17.5855 18.3879C17.6645 18.5935 17.7426 18.7864 17.8608 18.9738C17.8904 19.0233 17.9199 19.0727 17.9503 19.1236C17.9321 19.1588 17.914 19.1939 17.8952 19.2302C17.6935 19.0596 17.6004 18.8881 17.496 18.6509C17.4673 18.5873 17.4386 18.5237 17.409 18.4582C17.3459 18.2754 17.3312 18.1425 17.3445 17.9517Z" fill="currentColor"/>
<path d="M9.35889 5.64653C9.39524 5.66411 9.43158 5.68169 9.46903 5.6998C9.31573 5.85116 9.16183 6.00193 9.0078 6.15259C8.96406 6.19578 8.92033 6.23897 8.87528 6.28347C8.81245 6.34476 8.81245 6.34476 8.74835 6.40728C8.7097 6.44522 8.67106 6.48316 8.63124 6.52225C8.53279 6.60538 8.53279 6.60538 8.42264 6.60538C8.51381 6.37862 8.68356 6.23263 8.85979 6.06603C8.88943 6.03739 8.91907 6.00876 8.9496 5.97926C9.08061 5.85395 9.20516 5.74566 9.35889 5.64653Z" fill="currentColor"/>
<path d="M40.1448 30.3634C40.0721 30.5196 39.9936 30.6291 39.8673 30.7488C39.8194 30.7946 39.8194 30.7946 39.7705 30.8414C39.7373 30.8726 39.7041 30.9039 39.6698 30.9361C39.6362 30.9681 39.6025 31.0002 39.5678 31.0332C39.4851 31.1121 39.4019 31.1906 39.3187 31.269C39.2642 31.2514 39.2097 31.2338 39.1535 31.2157C39.2976 31.0733 39.4424 30.9314 39.5872 30.7896C39.6489 30.7286 39.6489 30.7286 39.7118 30.6664C39.7512 30.6279 39.7906 30.5895 39.8312 30.5499C39.8675 30.5142 39.9038 30.4785 39.9413 30.4417C40.0347 30.3634 40.0347 30.3634 40.1448 30.3634Z" fill="currentColor"/>
<path d="M30.3969 9.80153C30.7033 9.81437 30.8495 10.0018 31.0474 10.2044C31.0803 10.2372 31.1132 10.27 31.1471 10.3037C31.228 10.3844 31.3082 10.4658 31.3882 10.5473C31.37 10.6 31.3518 10.6528 31.3331 10.7071C31.021 10.4052 30.7089 10.1034 30.3969 9.80153Z" fill="currentColor"/>
<path d="M38.8231 8.09691C39.0202 8.16046 39.0423 8.20741 39.1509 8.37304C39.1952 8.44056 39.1952 8.44056 39.2404 8.50944C39.2708 8.55678 39.3012 8.60413 39.3325 8.65291C39.3637 8.70005 39.395 8.74719 39.4272 8.79576C39.5973 9.05803 39.5973 9.05803 39.6492 9.1623C39.631 9.19745 39.6128 9.23261 39.5941 9.26884C39.3765 9.08099 39.236 8.86088 39.0847 8.62295C39.0594 8.58415 39.0341 8.54535 39.0081 8.50538C38.8231 8.21725 38.8231 8.21725 38.8231 8.09691Z" fill="currentColor"/>
<path d="M40.4753 22.2665C40.55 22.4833 40.4832 22.5561 40.3823 22.7593C40.3519 22.8207 40.3214 22.8822 40.29 22.9455C40.1929 23.1322 40.0914 23.3129 39.9796 23.4917C39.9171 23.3153 39.9284 23.2303 40.0117 23.0635C40.0312 23.0238 40.0508 22.9841 40.0709 22.9432C40.0919 22.9023 40.1129 22.8613 40.1345 22.8192C40.1548 22.7778 40.1752 22.7365 40.1961 22.6939C40.3485 22.3891 40.3485 22.3891 40.4753 22.2665Z" fill="currentColor"/>
<path d="M14.5908 22.3731C14.7523 22.4434 14.8655 22.5193 14.9893 22.6415C15.0367 22.6878 15.0367 22.6878 15.085 22.7351C15.1173 22.7673 15.1496 22.7994 15.1829 22.8325C15.216 22.865 15.2492 22.8976 15.2833 22.9311C15.3648 23.0112 15.446 23.0916 15.5271 23.1721C15.5089 23.2072 15.4907 23.2424 15.472 23.2786C14.8399 22.7583 14.8399 22.7583 14.5908 22.4796C14.5908 22.4444 14.5908 22.4093 14.5908 22.3731Z" fill="currentColor"/>
<path d="M0.492096 20.2423C0.652938 20.3979 0.673208 20.5868 0.722715 20.795C0.733187 20.8359 0.743658 20.8768 0.754447 20.919C0.768876 20.9785 0.768876 20.9785 0.783597 21.0392C0.796821 21.0935 0.796821 21.0935 0.810313 21.1488C0.824107 21.268 0.804102 21.3537 0.767462 21.4675C0.571609 21.0542 0.475242 20.6987 0.492096 20.2423Z" fill="currentColor"/>
<path d="M16.7938 25.7823C16.8119 25.7823 16.8301 25.7823 16.8488 25.7823C16.8917 26.1058 16.7596 26.3238 16.5735 26.5813C16.452 26.7138 16.3243 26.8361 16.188 26.9542C16.1334 26.9366 16.0789 26.919 16.0227 26.9009C16.0705 26.868 16.1182 26.835 16.1673 26.8011C16.4834 26.5468 16.6902 26.1631 16.7938 25.7823Z" fill="currentColor"/>
<path d="M0.767462 11.6659C0.826042 11.8389 0.817608 11.9469 0.767677 12.1212C0.755076 12.1662 0.742475 12.2112 0.729492 12.2575C0.715896 12.304 0.702301 12.3505 0.688294 12.3984C0.674912 12.4457 0.66153 12.493 0.647742 12.5418C0.614691 12.6584 0.581153 12.7748 0.547169 12.8911C0.528995 12.8911 0.510821 12.8911 0.492096 12.8911C0.467095 12.472 0.522911 12.0208 0.767462 11.6659Z" fill="currentColor"/>
<path d="M29.1302 24.6104C29.1839 24.7663 29.1886 24.8469 29.1786 25.0072C29.1759 25.0523 29.1733 25.0975 29.1705 25.144C29.1674 25.1909 29.1643 25.2379 29.1612 25.2862C29.1583 25.3338 29.1554 25.3813 29.1524 25.4303C29.1453 25.5476 29.1379 25.665 29.1302 25.7823C29.112 25.7823 29.0938 25.7823 29.0751 25.7823C28.9776 25.5426 28.9554 25.3624 28.9787 25.1064C28.9836 25.0469 28.9884 24.9874 28.9934 24.926C29.02 24.7702 29.02 24.7702 29.1302 24.6104Z" fill="currentColor"/>
<path d="M28.7997 17.0994C28.8179 17.0994 28.8361 17.0994 28.8548 17.0994C28.8331 17.4805 28.8009 17.8667 28.6345 18.2181C28.5527 18.2708 28.5527 18.2708 28.4693 18.3246C28.5032 18.1602 28.5378 17.996 28.5726 17.8319C28.5821 17.7854 28.5917 17.7389 28.6016 17.691C28.6112 17.646 28.6208 17.601 28.6306 17.5547C28.6393 17.5134 28.648 17.4721 28.6569 17.4296C28.6905 17.3092 28.7383 17.2087 28.7997 17.0994Z" fill="currentColor"/>
<path d="M0.38195 12.9444C0.418298 12.9444 0.454646 12.9444 0.492096 12.9444C0.501093 13.2232 0.470371 13.4698 0.409486 13.7401C0.401606 13.7765 0.393726 13.813 0.385607 13.8505C0.366373 13.9392 0.346674 14.0278 0.326876 14.1163C0.308702 14.1163 0.290528 14.1163 0.271803 14.1163C0.258819 13.7103 0.280771 13.3394 0.38195 12.9444Z" fill="currentColor"/>
<path d="M44.8811 10.7604C44.9175 10.7604 44.9538 10.7604 44.9913 10.7604C45.0379 10.8856 45.0837 11.0109 45.129 11.1366C45.1487 11.1891 45.1487 11.1891 45.1688 11.2426C45.2532 11.4796 45.2803 11.6784 45.2666 11.9323C45.1385 11.7464 45.0788 11.5576 45.0119 11.3463C44.9993 11.3077 44.9867 11.2692 44.9736 11.2294C44.9218 11.0678 44.8811 10.9305 44.8811 10.7604Z" fill="currentColor"/>
<path d="M12.3328 17.2059C12.3874 17.2323 12.3874 17.2323 12.443 17.2592C12.5247 17.6215 12.5046 18.0092 12.4981 18.3779C12.3154 18.1129 12.3261 17.8439 12.3294 17.5322C12.3299 17.4708 12.3304 17.4094 12.3309 17.3462C12.3315 17.2999 12.3322 17.2536 12.3328 17.2059Z" fill="currentColor"/>
<path d="M44.7159 23.2254C44.7341 23.2254 44.7523 23.2254 44.771 23.2254C44.745 23.5935 44.5944 23.903 44.4405 24.2375C44.386 24.2375 44.3315 24.2375 44.2753 24.2375C44.3382 24.0787 44.4014 23.92 44.4646 23.7614C44.4826 23.7161 44.5005 23.6708 44.519 23.6241C44.5362 23.5811 44.5534 23.538 44.5711 23.4936C44.587 23.4537 44.6028 23.4138 44.6192 23.3727C44.6608 23.2786 44.6608 23.2786 44.7159 23.2254Z" fill="currentColor"/>
<path d="M36.0143 33.5063C36.0143 33.5415 36.0143 33.5766 36.0143 33.6128C35.6377 33.7829 35.3323 33.9182 34.9129 33.8792C35.0525 33.7441 35.1551 33.7344 35.3466 33.6927C35.5631 33.6454 35.8004 33.5063 36.0143 33.5063Z" fill="currentColor"/>
<path d="M3.52112 27.0607C3.69592 27.2207 3.83573 27.3909 3.97548 27.5801C4.01438 27.6326 4.05329 27.685 4.09337 27.7391C4.13724 27.7988 4.13724 27.7988 4.182 27.8598C4.16383 27.8949 4.14565 27.9301 4.12693 27.9663C3.88073 27.7492 3.68101 27.5043 3.52112 27.2205C3.52112 27.1678 3.52112 27.1151 3.52112 27.0607Z" fill="currentColor"/>
<path d="M2.14429 24.8234C2.34465 24.9526 2.41158 25.0997 2.5126 25.3029C2.53024 25.3371 2.54788 25.3712 2.56606 25.4065C2.69503 25.6608 2.69503 25.6608 2.69503 25.7823C2.52981 25.729 2.52981 25.729 2.42934 25.5663C2.39456 25.4987 2.36038 25.4309 2.32672 25.3628C2.30908 25.3288 2.29144 25.2948 2.27326 25.2598C2.1948 25.1048 2.14429 24.9982 2.14429 24.8234Z" fill="currentColor"/>
<path d="M38.1071 7.19134C38.3326 7.26404 38.422 7.416 38.558 7.59419C38.5836 7.62697 38.6091 7.65976 38.6354 7.69355C38.6983 7.77448 38.7607 7.85576 38.8231 7.93711C38.8049 7.97226 38.7867 8.00742 38.768 8.04364C38.7057 7.99528 38.6438 7.94633 38.5821 7.89715C38.5476 7.86996 38.5131 7.84277 38.4776 7.81475C38.377 7.71884 38.3302 7.63441 38.2723 7.51095C38.2428 7.4736 38.2133 7.43624 38.1828 7.39776C38.1071 7.29788 38.1071 7.29788 38.1071 7.19134Z" fill="currentColor"/>
<path d="M32.2143 31.4288C32.2325 31.4288 32.2506 31.4288 32.2694 31.4288C32.276 31.4809 32.2827 31.533 32.2896 31.5867C32.3391 31.9648 32.3955 32.3367 32.4896 32.7073C32.4351 32.6897 32.3806 32.6721 32.3244 32.654C32.197 32.392 32.201 32.1443 32.2074 31.8616C32.2079 31.8199 32.2084 31.7781 32.2089 31.7351C32.2102 31.633 32.2122 31.5309 32.2143 31.4288Z" fill="currentColor"/>
<path d="M21.0344 21.574C21.3965 21.6071 21.732 21.6885 22.0808 21.7871C22.0808 21.8047 22.0808 21.8222 22.0808 21.8404C21.7229 21.8568 21.4163 21.8344 21.0895 21.6806C21.0713 21.6454 21.0531 21.6102 21.0344 21.574Z" fill="currentColor"/>
<path d="M31.6085 5.85961C31.8755 5.88792 32.0598 5.96374 32.29 6.09599C32.3484 6.12888 32.4067 6.16177 32.4668 6.19566C32.5107 6.22539 32.5546 6.25513 32.5998 6.28576C32.5998 6.32092 32.5998 6.35608 32.5998 6.3923C32.3718 6.31006 32.1628 6.20531 31.9492 6.09266C31.9163 6.07536 31.8834 6.05805 31.8495 6.04022C31.7691 5.99791 31.6888 5.95541 31.6085 5.91288C31.6085 5.8953 31.6085 5.87772 31.6085 5.85961Z" fill="currentColor"/>
<path d="M41.4115 4.79423C41.6393 4.87579 41.7572 5.03419 41.8968 5.21705C41.9315 5.26005 41.9315 5.26005 41.9669 5.30392C42.0322 5.3883 42.0322 5.3883 42.1275 5.53999C42.1093 5.59273 42.0911 5.64547 42.0724 5.6998C41.9723 5.57905 41.8725 5.45806 41.7729 5.3369C41.7303 5.28556 41.7303 5.28556 41.6868 5.23318C41.6596 5.20004 41.6325 5.16691 41.6045 5.13278C41.5794 5.10237 41.5543 5.07196 41.5284 5.04063C41.4666 4.95403 41.4666 4.95403 41.4115 4.79423Z" fill="currentColor"/>
<path d="M45.8174 18.3779C45.8355 18.3779 45.8537 18.3779 45.8724 18.3779C45.8739 18.5133 45.875 18.6486 45.8759 18.784C45.8763 18.822 45.8768 18.86 45.8773 18.8991C45.8783 19.1222 45.8629 19.3299 45.8174 19.5498C45.781 19.5498 45.7447 19.5498 45.7072 19.5498C45.7151 19.4244 45.7231 19.299 45.7313 19.1736C45.7358 19.1037 45.7403 19.0339 45.7449 18.962C45.7611 18.7648 45.7861 18.5732 45.8174 18.3779Z" fill="currentColor"/>
<path d="M33.0955 2.66346C33.2526 2.85884 33.3794 3.06608 33.5085 3.27938C33.585 3.39956 33.6668 3.511 33.7563 3.6223C33.6034 3.60341 33.5475 3.58215 33.4461 3.46645C33.419 3.42449 33.3919 3.38254 33.3639 3.33931C33.3365 3.29777 33.3091 3.25622 33.2809 3.21342C33.0955 2.9085 33.0955 2.9085 33.0955 2.66346Z" fill="currentColor"/>
<path d="M12.0575 29.5644C12.297 29.5945 12.4528 29.6791 12.653 29.8074C12.7336 29.8586 12.7336 29.8586 12.8158 29.9108C12.8563 29.9371 12.8969 29.9634 12.9386 29.9905C12.8841 30.0257 12.8296 30.0609 12.7734 30.0971C12.245 29.7695 12.245 29.7695 12.0575 29.5644Z" fill="currentColor"/>
<path d="M4.45737 17.2059C4.47554 17.2059 4.49372 17.2059 4.51244 17.2059C4.5249 17.4057 4.536 17.6054 4.54686 17.8052C4.55041 17.8619 4.55396 17.9185 4.55762 17.9769C4.56046 18.0315 4.5633 18.0861 4.56623 18.1423C4.56911 18.1925 4.57199 18.2427 4.57497 18.2945C4.56708 18.4391 4.53398 18.5213 4.45737 18.6442C4.40298 18.157 4.40825 17.6935 4.45737 17.2059Z" fill="currentColor"/>
<path d="M5.77913 10.0679C5.81548 10.0679 5.85182 10.0679 5.88927 10.0679C5.90801 10.3306 5.85606 10.4913 5.73094 10.7237C5.70155 10.7796 5.67216 10.8354 5.64187 10.8929C5.55883 11.0267 5.55883 11.0267 5.44869 11.08C5.52217 10.8532 5.59503 10.6364 5.70684 10.4241C5.79524 10.2756 5.79524 10.2756 5.77913 10.0679Z" fill="currentColor"/>
<path d="M13.1589 26.6346C13.2542 26.6845 13.3494 26.7344 13.4446 26.7844C13.4977 26.8122 13.5507 26.84 13.6053 26.8687C13.7523 26.9475 13.8966 27.0295 14.0401 27.114C13.8893 27.172 13.8337 27.173 13.6817 27.1101C13.6341 27.0817 13.5866 27.0533 13.5376 27.0241C13.4897 26.9964 13.4419 26.9688 13.3926 26.9403C13.2655 26.845 13.2163 26.7778 13.1589 26.6346Z" fill="currentColor"/>
<path d="M5.28347 11.3996C5.30164 11.3996 5.31982 11.3996 5.33854 11.3996C5.35069 11.6442 5.313 11.8287 5.22839 12.0588C5.20795 12.1153 5.1875 12.1717 5.16644 12.2299C5.14258 12.2935 5.14258 12.2935 5.11825 12.3584C5.0819 12.3584 5.04555 12.3584 5.0081 12.3584C5.03953 12.0165 5.15534 11.7184 5.28347 11.3996Z" fill="currentColor"/>
<path d="M7.04581 8.20345C7.06399 8.25619 7.08216 8.30892 7.10088 8.36326C7.0264 8.4975 6.95039 8.61995 6.86338 8.74613C6.82893 8.7984 6.82893 8.7984 6.79379 8.85173C6.73431 8.93972 6.67009 9.02467 6.60523 9.10903C6.56888 9.10903 6.53253 9.10903 6.49508 9.10903C6.57362 8.89984 6.67652 8.72303 6.80142 8.53638C6.83557 8.48502 6.86972 8.43366 6.9049 8.38074C6.99074 8.25672 6.99074 8.25672 7.04581 8.20345Z" fill="currentColor"/>
<path d="M45.0463 22.2132C45.0645 22.2132 45.0827 22.2132 45.1014 22.2132C45.0733 22.5561 45.0062 22.8503 44.8811 23.1721C44.8448 23.1721 44.8084 23.1721 44.771 23.1721C44.8049 22.942 44.8614 22.7325 44.9396 22.5129C44.9696 22.4282 44.9696 22.4282 45.0001 22.3418C45.0154 22.2994 45.0306 22.257 45.0463 22.2132Z" fill="currentColor"/>
<path d="M8.0922 13.4771C8.11038 13.4771 8.12855 13.4771 8.14728 13.4771C8.11764 13.7802 8.08449 14.0816 8.03713 14.3827C8.00078 14.3827 7.96443 14.3827 7.92698 14.3827C7.90475 14.0386 7.94948 13.7935 8.0922 13.4771Z" fill="currentColor"/>
<path d="M24.3939 10.9734C24.7494 10.9435 25.0082 11.0462 25.3301 11.1865C25.3301 11.2217 25.3301 11.2568 25.3301 11.2931C24.9994 11.2585 24.7022 11.1408 24.3939 11.0267C24.3939 11.0091 24.3939 10.9916 24.3939 10.9734Z" fill="currentColor"/>
<path d="M21.9707 10.8669C21.8085 10.9715 21.692 11.0117 21.506 11.06C21.4538 11.0739 21.4016 11.0878 21.3479 11.102C21.1996 11.1333 21.1996 11.1333 20.9793 11.1333C20.9793 11.0981 20.9793 11.0629 20.9793 11.0267C21.3211 10.9129 21.6087 10.8475 21.9707 10.8669Z" fill="currentColor"/>
<path d="M6.38493 9.1623C6.44871 9.3133 6.44304 9.36808 6.37891 9.52249C6.34909 9.57392 6.31928 9.62535 6.28855 9.67834C6.25931 9.73019 6.23006 9.78203 6.19992 9.83544C6.10957 9.96133 6.10957 9.96133 5.94435 10.0146C6.03082 9.69677 6.20596 9.43775 6.38493 9.1623Z" fill="currentColor"/>
<path d="M13.6546 31.1625C13.8375 31.3984 13.8389 31.4536 13.8301 31.7351C13.8287 31.7975 13.8272 31.8598 13.8256 31.924C13.8237 31.9716 13.8218 32.0191 13.8198 32.068C13.7835 32.068 13.7471 32.068 13.7097 32.068C13.6915 31.7692 13.6733 31.4704 13.6546 31.1625Z" fill="currentColor"/>
<path d="M44 24.8767C44.0664 25.0311 44.0555 25.0885 43.9939 25.2485C43.9641 25.3049 43.9343 25.3613 43.9036 25.4194C43.8743 25.4762 43.8451 25.533 43.8149 25.5915C43.7246 25.729 43.7246 25.729 43.5594 25.7823C43.6511 25.4539 43.828 25.1706 44 24.8767Z" fill="currentColor"/>
<path d="M28.249 18.6975C28.2854 18.6975 28.3217 18.6975 28.3592 18.6975C28.3273 18.9139 28.255 19.0622 28.1354 19.2468C28.1052 19.2939 28.0751 19.3409 28.044 19.3894C28.0208 19.4247 27.9976 19.4601 27.9736 19.4965C27.9191 19.4789 27.8646 19.4614 27.8084 19.4432C27.9538 19.1971 28.0992 18.951 28.249 18.6975Z" fill="currentColor"/>
<path d="M7.87191 14.4892C7.89008 14.4892 7.90826 14.4892 7.92698 14.4892C7.91914 14.6146 7.91108 14.74 7.90289 14.8654C7.89842 14.9353 7.89394 15.0051 7.88934 15.077C7.87307 15.2742 7.84808 15.4658 7.81684 15.6611C7.79866 15.6611 7.78049 15.6611 7.76176 15.6611C7.75877 15.5257 7.7566 15.3904 7.75488 15.255C7.75396 15.217 7.75303 15.179 7.75208 15.1399C7.74982 14.9015 7.77879 14.714 7.87191 14.4892Z" fill="currentColor"/>
<path d="M33.6462 0.532692C33.6825 0.550271 33.7189 0.567849 33.7563 0.585961C33.3544 1.08722 33.3544 1.08723 33.1505 1.33173C33.1726 1.04041 33.284 0.852897 33.481 0.639231C33.5355 0.604073 33.59 0.568915 33.6462 0.532692Z" fill="currentColor"/>
<path d="M7.81684 17.8452C7.83501 17.8452 7.85319 17.8452 7.87191 17.8452C7.93959 18.1684 7.99723 18.4737 7.98206 18.804C7.94571 18.804 7.90936 18.804 7.87191 18.804C7.81925 18.591 7.81111 18.3934 7.81339 18.1748C7.81389 18.1129 7.81439 18.051 7.8149 17.9873C7.81554 17.9404 7.81618 17.8935 7.81684 17.8452Z" fill="currentColor"/>
<path d="M9.90962 23.3852C9.94597 23.3852 9.98232 23.3852 10.0198 23.3852C10.0994 23.4776 10.1745 23.5737 10.2469 23.6715C10.3068 23.7512 10.3068 23.7512 10.3678 23.8325C10.4604 23.9711 10.4604 23.9711 10.4604 24.0777C10.2605 24.0003 10.1765 23.9051 10.0611 23.7314C10.018 23.668 10.018 23.668 9.97416 23.6032C9.90962 23.4917 9.90962 23.4917 9.90962 23.3852Z" fill="currentColor"/>
<path d="M33.4259 14.649C33.4804 14.6666 33.5349 14.6842 33.5911 14.7023C33.6403 15.0529 33.6437 15.364 33.5911 15.7144C33.5729 15.7144 33.5548 15.7144 33.536 15.7144C33.4997 15.3628 33.4633 15.0113 33.4259 14.649Z" fill="currentColor"/>
<path d="M1.20805 10.1744C1.2444 10.1744 1.28074 10.1744 1.31819 10.1744C1.25778 10.4776 1.17828 10.7468 1.04283 11.0267C1.02465 11.0267 1.00648 11.0267 0.987755 11.0267C1.01661 10.7141 1.08474 10.4648 1.20805 10.1744Z" fill="currentColor"/>
<path d="M10.5154 24.1842C10.5518 24.1842 10.5881 24.1842 10.6256 24.1842C10.7138 24.2791 10.7982 24.3773 10.8803 24.4772C10.9478 24.5588 10.9478 24.5588 11.0167 24.642C11.0512 24.6843 11.0857 24.7266 11.1212 24.7702C11.0667 24.7877 11.0122 24.8053 10.956 24.8234C10.8823 24.7371 10.8089 24.6505 10.7357 24.5637C10.6948 24.5155 10.6539 24.4673 10.6118 24.4177C10.5154 24.2907 10.5154 24.2907 10.5154 24.1842Z" fill="currentColor"/>
<path d="M38.1071 17.6321C38.1435 17.6321 38.1798 17.6321 38.2173 17.6321C38.2302 17.9399 38.21 18.1921 38.1071 18.4844C38.0889 18.4844 38.0708 18.4844 38.052 18.4844C38.0459 18.1937 38.0566 17.9189 38.1071 17.6321Z" fill="currentColor"/>
<path d="M37.8318 13.6369C37.9947 13.7671 38.0294 13.8613 38.052 14.0631C38.0559 14.223 38.0553 14.3826 38.052 14.5425C37.9441 14.3859 37.9153 14.3001 37.8799 14.1197C37.8707 14.0741 37.8615 14.0286 37.852 13.9817C37.8318 13.85 37.8318 13.85 37.8318 13.6369Z" fill="currentColor"/>
<path d="M15.0418 5.58993C15.1315 5.59065 15.1315 5.59065 15.2231 5.59139C15.2689 5.59201 15.3147 5.59263 15.3619 5.59326C15.3619 5.62842 15.3619 5.66358 15.3619 5.6998C15.0893 5.71738 14.8166 5.73496 14.5358 5.75307C14.5358 5.71791 14.5358 5.68275 14.5358 5.64653C14.7167 5.5882 14.8517 5.58796 15.0418 5.58993Z" fill="currentColor"/>
<path d="M10.7908 28.7121C11.0905 28.7302 11.283 28.9093 11.5067 29.085C11.4886 29.1377 11.4704 29.1904 11.4517 29.2448C11.3414 29.1662 11.2312 29.0874 11.1212 29.0084C11.0897 28.986 11.0582 28.9636 11.0257 28.9405C10.9464 28.8834 10.8685 28.8245 10.7908 28.7654C10.7908 28.7478 10.7908 28.7302 10.7908 28.7121Z" fill="currentColor"/>
<path d="M16.8488 24.8767C16.8852 24.8767 16.9215 24.8767 16.959 24.8767C17.006 25.1875 17.0407 25.4333 16.9039 25.729C16.8857 25.729 16.8676 25.729 16.8488 25.729C16.8488 25.4477 16.8488 25.1665 16.8488 24.8767Z" fill="currentColor"/>
<path d="M3.46605 6.07269C3.5024 6.09026 3.53875 6.10784 3.5762 6.12595C3.35811 6.44237 3.35811 6.44237 3.13561 6.76518C3.11744 6.69487 3.09926 6.62455 3.08054 6.55211C3.15949 6.42643 3.15949 6.42643 3.26985 6.29908C3.32427 6.23522 3.32427 6.23522 3.37978 6.17007C3.40825 6.13793 3.43672 6.1058 3.46605 6.07269Z" fill="currentColor"/>
<path d="M41.5217 15.0219C41.5398 15.0219 41.558 15.0219 41.5767 15.0219C41.5887 15.0829 41.5887 15.0829 41.6008 15.1451C41.6298 15.2926 41.6298 15.2926 41.6869 15.4481C41.6821 15.5943 41.6742 15.7384 41.6628 15.8842C41.6599 15.9241 41.657 15.9641 41.6541 16.0052C41.6469 16.1036 41.6394 16.202 41.6318 16.3004C41.6136 16.3004 41.5955 16.3004 41.5767 16.3004C41.5586 15.8785 41.5404 15.4566 41.5217 15.0219Z" fill="currentColor"/>
<path d="M19.0518 12.0921C19.0881 12.1097 19.1245 12.1273 19.1619 12.1454C18.9315 12.4994 18.9315 12.4994 18.7041 12.5948C18.6309 12.6097 18.6309 12.6097 18.5561 12.6248C18.6077 12.5659 18.6593 12.5071 18.711 12.4483C18.7398 12.4156 18.7685 12.3828 18.7981 12.3491C18.8795 12.2597 18.9637 12.1753 19.0518 12.0921Z" fill="currentColor"/>
<path d="M12.6082 0.799038C12.7363 0.912928 12.8187 1.02202 12.8973 1.17192C12.9267 1.22631 12.9267 1.22631 12.9567 1.28179C12.9937 1.385 12.9937 1.385 12.9386 1.54481C12.9023 1.54481 12.866 1.54481 12.8285 1.54481C12.649 1.04354 12.649 1.04354 12.6082 0.799038Z" fill="currentColor"/>
<path d="M9.46903 0.585961C9.50538 0.60354 9.54173 0.621119 9.57918 0.63923C9.42797 0.79632 9.28502 0.919535 9.08352 1.01211C8.96477 0.989433 8.96477 0.989433 8.86323 0.958845C8.96155 0.895075 9.0603 0.831933 9.15925 0.769074C9.2142 0.733847 9.26914 0.698621 9.32576 0.662327C9.37304 0.637126 9.42032 0.611925 9.46903 0.585961Z" fill="currentColor"/>
<path d="M26.0461 11.6659C26.3229 11.6903 26.4949 11.8254 26.707 11.9856C26.6888 12.0383 26.6706 12.091 26.6519 12.1454C26.5508 12.0757 26.4498 12.0057 26.349 11.9356C26.2928 11.8967 26.2365 11.8578 26.1786 11.8176C26.1349 11.7852 26.0911 11.7527 26.0461 11.7192C26.0461 11.7016 26.0461 11.6841 26.0461 11.6659Z" fill="currentColor"/>
<path d="M39.7593 23.5982C39.7957 23.5982 39.832 23.5982 39.8695 23.5982C39.7916 23.8554 39.6806 24.0625 39.539 24.2907C39.483 24.1493 39.4768 24.0941 39.5388 23.952C39.565 23.91 39.5912 23.8679 39.6182 23.8246C39.6442 23.7821 39.6703 23.7395 39.6971 23.6956C39.7177 23.6635 39.7382 23.6314 39.7593 23.5982Z" fill="currentColor"/>
<path d="M4.78781 19.9227C4.99361 20.1737 5.01432 20.3498 5.0081 20.6684C4.82831 20.4945 4.79153 20.2737 4.78092 20.0325C4.7832 19.9963 4.78547 19.96 4.78781 19.9227Z" fill="currentColor"/>
<path d="M19.4924 11.7725C19.5651 11.7901 19.6378 11.8076 19.7127 11.8258C19.4673 12.0103 19.4673 12.0103 19.217 12.1986C19.1806 12.1811 19.1443 12.1635 19.1069 12.1454C19.2354 12.0211 19.3639 11.8968 19.4924 11.7725Z" fill="currentColor"/>
<path d="M1.81385 24.1309C1.9614 24.2545 2.01553 24.361 2.07201 24.5404C2.08585 24.5835 2.0997 24.6265 2.11396 24.6709C2.12397 24.7037 2.13398 24.7364 2.14429 24.7702C1.99831 24.6384 1.88456 24.5264 1.81385 24.344C1.81385 24.2737 1.81385 24.2034 1.81385 24.1309Z" fill="currentColor"/>
<path d="M29.9012 23.545C29.9739 23.5626 30.0466 23.5801 30.1215 23.5982C29.9398 23.7389 29.758 23.8795 29.5708 24.0244C29.5708 23.839 29.5934 23.8185 29.7222 23.6915C29.7503 23.6626 29.7784 23.6338 29.8074 23.6041C29.8538 23.5748 29.8538 23.5748 29.9012 23.545Z" fill="currentColor"/>
<path d="M27.7533 19.5498C27.7715 19.6025 27.7897 19.6553 27.8084 19.7096C27.7295 19.8184 27.7295 19.8184 27.6191 19.9327C27.5828 19.9708 27.5466 20.0089 27.5092 20.0481C27.4807 20.0771 27.4522 20.106 27.4229 20.1357C27.3866 20.1182 27.3502 20.1006 27.3128 20.0825C27.4582 19.9067 27.6036 19.7309 27.7533 19.5498Z" fill="currentColor"/>
<path d="M35.6288 0.266346C35.8795 0.295207 36.0729 0.352642 36.2897 0.479423C36.3079 0.532159 36.326 0.584895 36.3448 0.63923C36.0971 0.549379 35.864 0.435916 35.6288 0.319615C35.6288 0.302036 35.6288 0.284457 35.6288 0.266346Z" fill="currentColor"/>
<path d="M37.7767 32.3877C37.7167 32.5617 37.684 32.5911 37.5357 32.694C37.5024 32.7178 37.469 32.7417 37.4346 32.7664C37.3361 32.8138 37.3361 32.8138 37.1709 32.7605C37.2509 32.6981 37.3313 32.636 37.4118 32.5741C37.4789 32.5222 37.4789 32.5222 37.5474 32.4692C37.6665 32.3877 37.6665 32.3877 37.7767 32.3877Z" fill="currentColor"/>
<path d="M33.5911 29.7242C33.6638 29.7418 33.7365 29.7594 33.8114 29.7775C33.6478 29.8829 33.4843 29.9884 33.3157 30.0971C33.2794 30.0795 33.243 30.0619 33.2056 30.0438C33.3299 29.9194 33.4413 29.8208 33.5911 29.7242Z" fill="currentColor"/>
<path d="M15.5822 23.3319C15.769 23.3635 15.8691 23.426 16.009 23.5483C16.0597 23.5921 16.0597 23.5921 16.1114 23.6367C16.1493 23.6704 16.1493 23.6704 16.188 23.7048C16.1698 23.7399 16.1516 23.7751 16.1329 23.8113C16.0409 23.7416 15.9492 23.6716 15.8575 23.6016C15.8064 23.5626 15.7553 23.5237 15.7026 23.4836C15.6629 23.4511 15.6231 23.4186 15.5822 23.3852C15.5822 23.3676 15.5822 23.35 15.5822 23.3319Z" fill="currentColor"/>
<path d="M37.1158 21.4675C37.1921 21.6353 37.1649 21.6976 37.102 21.877C37.0057 22.0534 37.0057 22.0534 36.8404 22.1067C36.9126 21.8811 37.0025 21.6766 37.1158 21.4675Z" fill="currentColor"/>
<path d="M0.326876 19.3367C0.432233 19.5107 0.45667 19.656 0.471444 19.8561C0.475561 19.9085 0.479679 19.961 0.483921 20.0151C0.487968 20.0748 0.487968 20.0748 0.492097 20.1357C0.328579 19.9614 0.307956 19.8491 0.31655 19.6164C0.318041 19.5639 0.319532 19.5114 0.321068 19.4574C0.322985 19.4176 0.324901 19.3777 0.326876 19.3367Z" fill="currentColor"/>
<path d="M8.3125 12.7313C8.37771 12.9206 8.35079 12.9816 8.2884 13.1675C8.27257 13.2155 8.25674 13.2635 8.24043 13.3129C8.22786 13.3495 8.2153 13.3861 8.20235 13.4238C8.18418 13.4238 8.166 13.4238 8.14728 13.4238C8.13941 13.0281 8.13941 13.0281 8.20235 12.8379C8.2387 12.8379 8.27505 12.8379 8.3125 12.8379C8.3125 12.8027 8.3125 12.7676 8.3125 12.7313Z" fill="currentColor"/>
<path d="M40.8608 11.879C41.0513 12.0633 41.0811 12.2636 41.0811 12.5183C41.0447 12.5183 41.0084 12.5183 40.9709 12.5183C40.8833 12.2957 40.8491 12.1171 40.8608 11.879Z" fill="currentColor"/>
<path d="M7.92698 7.0848C7.94516 7.13754 7.96333 7.19027 7.98206 7.24461C7.91902 7.34178 7.91902 7.34178 7.82716 7.44104C7.79728 7.4742 7.76739 7.50737 7.73659 7.54154C7.65162 7.61749 7.65162 7.61749 7.54147 7.61749C7.63331 7.40754 7.77427 7.25583 7.92698 7.0848Z" fill="currentColor"/>
<path d="M39.0984 31.3223C39.019 31.5016 38.9149 31.6158 38.768 31.7484C38.7135 31.7308 38.659 31.7133 38.6028 31.6952C38.6644 31.6327 38.7264 31.5706 38.7886 31.5087C38.8404 31.4568 38.8404 31.4568 38.8932 31.4038C38.9883 31.3223 38.9883 31.3223 39.0984 31.3223Z" fill="currentColor"/>
<path d="M7.92698 25.9954C8.16238 26.0797 8.27203 26.2354 8.42264 26.4215C8.40447 26.4567 8.38629 26.4918 8.36757 26.528C8.29397 26.4494 8.22058 26.3706 8.14728 26.2917C8.10638 26.2478 8.06549 26.2039 8.02336 26.1587C7.92698 26.0486 7.92698 26.0486 7.92698 25.9954Z" fill="currentColor"/>
<path d="M4.95303 12.4117C4.9712 12.4117 4.98938 12.4117 5.0081 12.4117C4.95504 12.913 4.95504 12.913 4.89796 13.1575C4.8085 13.0243 4.78377 12.9663 4.81319 12.8071C4.82981 12.7601 4.84642 12.7131 4.86353 12.6647C4.87986 12.6172 4.89619 12.5697 4.91301 12.5208C4.92622 12.4848 4.93942 12.4488 4.95303 12.4117Z" fill="currentColor"/>
<path d="M31.3882 10.6006C31.48 10.6893 31.5718 10.7781 31.6635 10.8669C31.713 10.9114 31.713 10.9114 31.7634 10.9568C31.8288 11.0267 31.8288 11.0267 31.8288 11.1333C31.6197 11.0538 31.5139 10.9384 31.3882 10.7604C31.3882 10.7076 31.3882 10.6549 31.3882 10.6006Z" fill="currentColor"/>
<path d="M35.3535 4.74096C35.5958 4.76775 35.7231 4.85217 35.9042 5.0073C35.886 5.06004 35.8678 5.11277 35.8491 5.16711C35.7663 5.10627 35.6838 5.04519 35.6013 4.984C35.5553 4.95001 35.5093 4.91602 35.4619 4.881C35.4261 4.85236 35.3903 4.82373 35.3535 4.79423C35.3535 4.77665 35.3535 4.75907 35.3535 4.74096Z" fill="currentColor"/>
<path d="M9.19367 22.2665C9.23002 22.2665 9.26636 22.2665 9.30381 22.2665C9.39469 22.4247 9.48556 22.5829 9.57918 22.7459C9.54283 22.7811 9.50648 22.8163 9.46903 22.8525C9.42286 22.7749 9.37703 22.6972 9.33135 22.6194C9.30579 22.5762 9.28024 22.5329 9.2539 22.4883C9.19367 22.3731 9.19367 22.3731 9.19367 22.2665Z" fill="currentColor"/>
<path d="M27.2026 20.189C27.2208 20.2418 27.239 20.2945 27.2577 20.3488C27.0157 20.5621 27.0157 20.5621 26.9273 20.6152C26.8727 20.5976 26.8182 20.58 26.762 20.5619C26.9074 20.4388 27.0528 20.3158 27.2026 20.189Z" fill="currentColor"/>
<path d="M11.0662 8.15018C11.1025 8.16776 11.1389 8.18534 11.1763 8.20345C11.0491 8.34408 10.9219 8.48471 10.7908 8.62961C10.7726 8.57687 10.7544 8.52413 10.7357 8.4698C10.8448 8.36432 10.9538 8.25885 11.0662 8.15018Z" fill="currentColor"/>
<path d="M33.0955 1.385C33.1595 1.57408 33.1463 1.73435 33.1264 1.93101C33.118 2.01712 33.118 2.01712 33.1094 2.10496C33.1048 2.14864 33.1002 2.19231 33.0955 2.23731C33.0773 2.23731 33.0591 2.23731 33.0404 2.23731C33.0282 2.12529 33.0169 2.01318 33.006 1.90104C32.9996 1.83862 32.9932 1.77621 32.9866 1.7119C32.9853 1.54481 32.9853 1.54481 33.0955 1.385Z" fill="currentColor"/>
<path d="M12.8285 30.0438C13.0625 30.069 13.1699 30.2018 13.3242 30.3634C13.306 30.4162 13.2878 30.4689 13.2691 30.5232C13.1076 30.3713 12.9583 30.2222 12.8285 30.0438Z" fill="currentColor"/>
<path d="M15.8575 27.0075C15.8575 27.0602 15.8575 27.1129 15.8575 27.1673C15.6702 27.2788 15.5242 27.2834 15.3068 27.2738C15.4223 27.1621 15.4929 27.1326 15.6441 27.0807C15.684 27.0668 15.7239 27.053 15.765 27.0387C15.8108 27.0232 15.8108 27.0232 15.8575 27.0075Z" fill="currentColor"/>
<path d="M13.93 21.4675C14.0586 21.5877 14.1606 21.6955 14.2604 21.8404C14.2422 21.8931 14.2241 21.9458 14.2053 22.0002C13.93 21.7072 13.93 21.7072 13.93 21.4675Z" fill="currentColor"/>
<path d="M32.9302 12.9977C33.1198 13.1394 33.1503 13.3121 33.2056 13.5304C33.0404 13.4771 33.0404 13.4771 32.975 13.3539C32.9302 13.2108 32.9302 13.2108 32.9302 12.9977Z" fill="currentColor"/>
<path d="M11.3415 7.83057C11.396 7.84815 11.4506 7.86573 11.5067 7.88384C11.4159 7.97173 11.325 8.05963 11.2314 8.15018C11.1769 8.1326 11.1223 8.11503 11.0662 8.09691C11.157 8.00902 11.2479 7.92113 11.3415 7.83057Z" fill="currentColor"/>
<path d="M12.0024 25.729C12.2114 25.8084 12.3114 25.9291 12.443 26.1019C12.2345 26.0731 12.1371 25.9891 12.0024 25.8355C12.0024 25.8004 12.0024 25.7652 12.0024 25.729Z" fill="currentColor"/>
<path d="M6.32986 23.758C6.49508 23.8113 6.49508 23.8113 6.59146 23.9645C6.6603 24.1309 6.6603 24.1309 6.60523 24.2907C6.55903 24.2221 6.51321 24.1533 6.46754 24.0843C6.44199 24.046 6.41643 24.0077 6.3901 23.9682C6.32986 23.8646 6.32986 23.8646 6.32986 23.758Z" fill="currentColor"/>
<path d="M18.6663 12.5715C18.6844 12.6067 18.7026 12.6418 18.7213 12.6781C18.685 12.6781 18.6486 12.6781 18.6112 12.6781C18.5976 12.711 18.5839 12.744 18.5699 12.7779C18.4897 12.9098 18.4251 12.9418 18.2808 12.9977C18.3471 12.8648 18.4159 12.7483 18.501 12.6248C18.5556 12.6072 18.6101 12.5896 18.6663 12.5715Z" fill="currentColor"/>
<path d="M0.602242 12.2519C0.620416 12.2519 0.638591 12.2519 0.657315 12.2519C0.651005 12.3285 0.643983 12.4051 0.636663 12.4816C0.632829 12.5243 0.628996 12.5669 0.625046 12.6109C0.602242 12.7313 0.602242 12.7313 0.492096 12.8911C0.476361 12.4345 0.476361 12.4345 0.602242 12.2519Z" fill="currentColor"/>
<path d="M13.214 6.33903C13.2685 6.35661 13.3231 6.37419 13.3792 6.3923C13.2338 6.49777 13.0884 6.60325 12.9386 6.71192C12.9023 6.69434 12.866 6.67676 12.8285 6.65865C13.0901 6.39896 13.0901 6.39896 13.214 6.33903Z" fill="currentColor"/>
<path d="M3.96171 5.48672C3.96171 5.72056 3.84451 5.79404 3.68634 5.96615C3.66817 5.91341 3.65 5.86067 3.63127 5.80634C3.74142 5.6998 3.85156 5.59326 3.96171 5.48672Z" fill="currentColor"/>
<path d="M30.8925 5.59326C30.9618 5.59985 31.0311 5.60645 31.1025 5.61324C31.161 5.6188 31.161 5.6188 31.2206 5.62448C31.3331 5.64653 31.3331 5.64653 31.4983 5.75307C31.4802 5.78823 31.462 5.82339 31.4433 5.85961C31.1706 5.75414 31.1706 5.75414 30.8925 5.64653C30.8925 5.62895 30.8925 5.61137 30.8925 5.59326Z" fill="currentColor"/>
<path d="M9.96469 5.22038C9.96469 5.25554 9.96469 5.29069 9.96469 5.32692C9.8098 5.47008 9.8098 5.47008 9.63425 5.59326C9.57973 5.57568 9.52521 5.55811 9.46903 5.53999C9.5307 5.48641 9.59273 5.43321 9.65491 5.38019C9.70666 5.33569 9.70666 5.33569 9.75946 5.29029C9.85455 5.22038 9.85455 5.22038 9.96469 5.22038Z" fill="currentColor"/>
<path d="M10.2401 28.2859C10.4533 28.3165 10.575 28.4184 10.7357 28.5523C10.7175 28.5874 10.6994 28.6226 10.6806 28.6588C10.6071 28.6069 10.5337 28.5547 10.4604 28.5023C10.4195 28.4733 10.3786 28.4442 10.3364 28.4143C10.3046 28.3895 10.2728 28.3647 10.2401 28.3392C10.2401 28.3216 10.2401 28.304 10.2401 28.2859Z" fill="currentColor"/>
<path d="M3.30083 26.7411C3.41442 26.8343 3.41442 26.8343 3.52112 26.9542C3.50736 27.0741 3.50736 27.0741 3.46605 27.1673C3.4297 27.1321 3.39335 27.097 3.3559 27.0607C3.31956 27.0432 3.28321 27.0256 3.24576 27.0075C3.26393 26.9196 3.28211 26.8317 3.30083 26.7411Z" fill="currentColor"/>
<path d="M29.3505 24.0777C29.405 24.0952 29.4595 24.1128 29.5157 24.1309C29.4248 24.2716 29.334 24.4122 29.2403 24.5571C29.1853 24.344 29.1853 24.344 29.2644 24.1975C29.2928 24.158 29.3212 24.1184 29.3505 24.0777Z" fill="currentColor"/>
<path d="M17.1793 15.3415C17.1975 15.3415 17.2156 15.3415 17.2344 15.3415C17.2344 15.4646 17.2344 15.5876 17.2344 15.7144C17.198 15.7144 17.1617 15.7144 17.1242 15.7144C17.1242 15.8199 17.1242 15.9254 17.1242 16.034C17.106 16.034 17.0879 16.034 17.0691 16.034C17.06 15.7719 17.0555 15.581 17.1793 15.3415Z" fill="currentColor"/>
<path d="M32.6549 12.465C32.6912 12.465 32.7276 12.465 32.765 12.465C32.8195 12.6232 32.8741 12.7814 32.9302 12.9444C32.8939 12.9444 32.8575 12.9444 32.8201 12.9444C32.6549 12.6448 32.6549 12.6448 32.6549 12.465Z" fill="currentColor"/>
<path d="M36.3448 10.1211C36.4958 10.2916 36.5998 10.441 36.6752 10.6538C36.51 10.6006 36.51 10.6006 36.4171 10.4774C36.3448 10.3342 36.3448 10.3342 36.3448 10.1211Z" fill="currentColor"/>
<path d="M41.742 5.22038C41.9256 5.2939 42.0276 5.37217 42.1275 5.53999C42.1093 5.59273 42.0911 5.64547 42.0724 5.6998C42.0172 5.63 41.9621 5.56006 41.9072 5.49005C41.8765 5.45112 41.8458 5.41218 41.8142 5.37207C41.742 5.27365 41.742 5.27365 41.742 5.22038Z" fill="currentColor"/>
<path d="M12.7734 2.87654C12.7916 2.92927 12.8098 2.98201 12.8285 3.03634C12.7321 3.20614 12.7321 3.20614 12.6082 3.35596C12.5537 3.35596 12.4992 3.35596 12.443 3.35596C12.552 3.19775 12.6611 3.03954 12.7734 2.87654Z" fill="currentColor"/>
<path d="M33.2607 26.4215C33.1852 26.5899 33.1511 26.6342 32.9853 26.7411C32.9308 26.7235 32.8763 26.706 32.8201 26.6879C33.1368 26.4215 33.1368 26.4215 33.2607 26.4215Z" fill="currentColor"/>
<path d="M40.6956 21.7338C40.7506 21.8936 40.7506 21.8936 40.6715 22.0634C40.6289 22.1376 40.6289 22.1376 40.5854 22.2132C40.5672 22.2132 40.5491 22.2132 40.5303 22.2132C40.5716 21.8537 40.5716 21.8537 40.6956 21.7338Z" fill="currentColor"/>
<path d="M0.657316 20.9348C0.711838 20.9612 0.711838 20.9612 0.767462 20.9881C0.790266 21.0981 0.790266 21.0981 0.801883 21.2311C0.806001 21.2751 0.810118 21.3191 0.814361 21.3645C0.818407 21.4155 0.818407 21.4155 0.822535 21.4675C0.740571 21.3998 0.740571 21.3998 0.657316 21.3077C0.64699 21.1112 0.64699 21.1112 0.657316 20.9348Z" fill="currentColor"/>
<path d="M17.1793 17.2592C17.3058 17.4427 17.3192 17.5755 17.3445 17.7919C17.29 17.7743 17.2355 17.7567 17.1793 17.7386C17.1793 17.5804 17.1793 17.4222 17.1793 17.2592Z" fill="currentColor"/>
<path d="M4.67766 14.0098C4.65949 14.2032 4.64131 14.3965 4.62259 14.5958C4.60441 14.5958 4.58624 14.5958 4.56752 14.5958C4.54934 14.42 4.53117 14.2442 4.51244 14.0631C4.62259 14.0098 4.62259 14.0098 4.67766 14.0098Z" fill="currentColor"/>
<path d="M20.6489 11.2931C20.3585 11.4647 20.3585 11.4647 20.2634 11.5061C20.227 11.4886 20.1907 11.471 20.1532 11.4529C20.3275 11.2767 20.4009 11.2211 20.6489 11.2931Z" fill="currentColor"/>
<path d="M39.9796 9.8548C40.1692 9.99648 40.1996 10.1692 40.255 10.3875C40.0527 10.2234 40.0034 10.1079 39.9796 9.8548Z" fill="currentColor"/>
<path d="M7.43132 7.67076C7.4495 7.7235 7.46767 7.77623 7.4864 7.83057C7.40905 7.95115 7.31034 8.04476 7.21103 8.15018C7.17468 8.1326 7.13833 8.11503 7.10088 8.09691C7.20993 7.95628 7.31897 7.81565 7.43132 7.67076Z" fill="currentColor"/>
<path d="M10.8459 4.47461C10.8822 4.49219 10.9186 4.50977 10.956 4.52788C10.714 4.74116 10.714 4.74116 10.6256 4.79423C10.571 4.77665 10.5165 4.75907 10.4604 4.74096C10.5876 4.65306 10.7148 4.56517 10.8459 4.47461Z" fill="currentColor"/>
<path d="M33.3708 3.19615C33.5166 3.33347 33.6431 3.45805 33.7563 3.6223C33.6046 3.60206 33.5459 3.5793 33.4397 3.46915C33.3708 3.35596 33.3708 3.35596 33.3708 3.19615Z" fill="currentColor"/>
<path d="M36.8955 0.958845C37.1331 0.984378 37.2351 1.05184 37.3912 1.22519C37.1536 1.19966 37.0516 1.13219 36.8955 0.958845Z" fill="currentColor"/>
<path d="M12.2227 0.532692C12.434 0.583795 12.4758 0.598537 12.6082 0.745768C12.59 0.798505 12.5719 0.851241 12.5531 0.905576C12.4441 0.782524 12.335 0.659472 12.2227 0.532692Z" fill="currentColor"/>
<path d="M40.8057 29.5644C40.8239 29.6171 40.8421 29.6699 40.8608 29.7242C40.7898 29.7975 40.7161 29.8684 40.6405 29.9373C40.6041 29.9373 40.5678 29.9373 40.5303 29.9373C40.6016 29.7836 40.6768 29.6777 40.8057 29.5644Z" fill="currentColor"/>
<path d="M9.79947 27.8598C9.9368 27.9239 10.0573 27.9905 10.185 28.0729C10.1668 28.1256 10.1486 28.1783 10.1299 28.2327C10.0175 28.1466 9.90738 28.0576 9.79947 27.9663C9.79947 27.9312 9.79947 27.896 9.79947 27.8598Z" fill="currentColor"/>
<path d="M34.0317 25.729C34.0317 25.8888 34.0317 25.8888 33.9216 26.0053C33.8852 26.0372 33.8489 26.0691 33.8114 26.1019C33.7569 26.0843 33.7024 26.0667 33.6462 26.0486C33.7734 25.9432 33.9006 25.8377 34.0317 25.729Z" fill="currentColor"/>
<path d="M38.9332 25.0365C38.9332 25.1963 38.9332 25.1963 38.7955 25.3395C38.7501 25.3801 38.7047 25.4208 38.6579 25.4627C38.6877 25.2605 38.7791 25.1712 38.9332 25.0365Z" fill="currentColor"/>
<path d="M0.932682 21.8936C1.08058 22.0367 1.10123 22.18 1.15297 22.3731C1.09845 22.3555 1.04393 22.3379 0.987755 22.3198C0.969581 22.1792 0.951407 22.0385 0.932682 21.8936Z" fill="currentColor"/>
<path d="M45.2116 21.6806C45.2297 21.6806 45.2479 21.6806 45.2666 21.6806C45.2485 21.8388 45.2303 21.997 45.2116 22.16C45.1752 22.16 45.1389 22.16 45.1014 22.16C45.1496 21.8004 45.1496 21.8004 45.2116 21.6806Z" fill="currentColor"/>
<path d="M5.33854 21.6806C5.55544 21.8576 5.55544 21.8576 5.5726 22.0401C5.56806 22.0797 5.56352 22.1192 5.55883 22.16C5.42099 22.0035 5.36777 21.8841 5.33854 21.6806Z" fill="currentColor"/>
<path d="M32.1041 21.4142C32.1041 21.574 32.1041 21.574 31.9665 21.7172C31.921 21.7578 31.8756 21.7985 31.8288 21.8404C31.8586 21.6382 31.95 21.5489 32.1041 21.4142Z" fill="currentColor"/>
<path d="M19.217 20.6152C19.4351 20.747 19.4351 20.747 19.6576 20.8815C19.4924 20.9348 19.4924 20.9348 19.3444 20.8682C19.3023 20.8374 19.2603 20.8067 19.217 20.775C19.217 20.7222 19.217 20.6695 19.217 20.6152Z" fill="currentColor"/>
<path d="M32.3795 11.9856C32.4158 11.9856 32.4522 11.9856 32.4896 11.9856C32.6021 12.1403 32.6549 12.22 32.6549 12.4117C32.6185 12.4117 32.5822 12.4117 32.5447 12.4117C32.3795 12.1054 32.3795 12.1054 32.3795 11.9856Z" fill="currentColor"/>
<path d="M10.4053 4.84749C10.3428 5.02884 10.2969 5.07211 10.1299 5.16711C10.0754 5.14953 10.0209 5.13195 9.96469 5.11384C10.2814 4.84749 10.2814 4.84749 10.4053 4.84749Z" fill="currentColor"/>
<path d="M34.3621 0.266346C34.0717 0.438014 34.0717 0.438014 33.9766 0.479422C33.9403 0.461843 33.9039 0.444264 33.8665 0.426153C34.0165 0.208492 34.1163 0.192542 34.3621 0.266346Z" fill="currentColor"/>
<path d="M21.1996 21.7871C21.2542 21.7871 21.3087 21.7871 21.3649 21.7871C21.383 21.8398 21.4012 21.8926 21.4199 21.9469C21.3836 21.9469 21.3472 21.9469 21.3098 21.9469C21.3098 21.9117 21.3098 21.8766 21.3098 21.8404C21.2734 21.8228 21.2371 21.8052 21.1996 21.7871Z" fill="currentColor"/>
<path d="M38.3274 16.9929C38.3456 16.9929 38.3638 16.9929 38.3825 16.9929C38.3825 17.0983 38.3825 17.2038 38.3825 17.3125C38.3643 17.3125 38.3461 17.3125 38.3274 17.3125C38.3274 17.207 38.3274 17.1015 38.3274 16.9929Z" fill="currentColor"/>
<path d="M7.54147 16.034C7.55964 16.034 7.57782 16.034 7.59654 16.034C7.59654 16.1395 7.59654 16.245 7.59654 16.3536C7.57837 16.3536 7.5602 16.3536 7.54147 16.3536C7.54147 16.2482 7.54147 16.1427 7.54147 16.034Z" fill="currentColor"/>
<path d="M38.3274 15.6611C38.3456 15.6611 38.3638 15.6611 38.3825 15.6611C38.3825 15.7666 38.3825 15.8721 38.3825 15.9808C38.3643 15.9808 38.3461 15.9808 38.3274 15.9808C38.3274 15.8753 38.3274 15.7698 38.3274 15.6611Z" fill="currentColor"/>
<path d="M41.1361 13.6902C41.1725 13.6902 41.2088 13.6902 41.2463 13.6902C41.2281 13.7429 41.2099 13.7956 41.1912 13.85C41.173 13.7972 41.1549 13.7445 41.1361 13.6902Z" fill="currentColor"/>
<path d="M31.0577 27.4336C31.0941 27.4688 31.1304 27.5039 31.1679 27.5402C31.1315 27.5402 31.0952 27.5402 31.0577 27.5402C31.0577 27.505 31.0577 27.4698 31.0577 27.4336Z" fill="currentColor"/>
<path d="M13.4343 27.0075C13.4888 27.0338 13.4888 27.0338 13.5445 27.0607C13.4899 27.0871 13.4899 27.0871 13.4343 27.114C13.4343 27.0788 13.4343 27.0437 13.4343 27.0075Z" fill="currentColor"/>
<path d="M3.13561 26.7944C3.17196 26.8295 3.20831 26.8647 3.24576 26.9009C3.20941 26.9009 3.17306 26.9009 3.13561 26.9009C3.13561 26.8658 3.13561 26.8306 3.13561 26.7944Z" fill="currentColor"/>
<path d="M2.25444 25.4094C2.29079 25.4094 2.32714 25.4094 2.36459 25.4094C2.34641 25.4446 2.32824 25.4797 2.30951 25.5159C2.29134 25.4808 2.27316 25.4456 2.25444 25.4094Z" fill="currentColor"/>
<path d="M0.106583 19.4432C0.142932 19.4432 0.17928 19.4432 0.21673 19.4432C0.198556 19.4784 0.180382 19.5136 0.161657 19.5498C0.143482 19.5146 0.125308 19.4795 0.106583 19.4432Z" fill="currentColor"/>
<path d="M16.959 17.0994C16.9772 17.1346 16.9953 17.1697 17.0141 17.2059C16.9777 17.1884 16.9414 17.1708 16.9039 17.1527C16.9221 17.1351 16.9403 17.1175 16.959 17.0994Z" fill="currentColor"/>
<path d="M37.9419 7.24461C37.9782 7.24461 38.0146 7.24461 38.052 7.24461C38.0339 7.27976 38.0157 7.31492 37.997 7.35115C37.9788 7.31599 37.9606 7.28083 37.9419 7.24461Z" fill="currentColor"/>
<path d="M10.6256 0C10.7908 0.0532692 10.7908 0.0532692 10.7908 0.0532692L10.6256 0Z" fill="currentColor"/>
<path d="M30.7273 27.4869C30.8375 27.5402 30.8375 27.5402 30.8375 27.5402L30.7273 27.4869Z" fill="currentColor"/>
<path d="M14.2604 27.3804C14.3706 27.4336 14.3706 27.4336 14.3706 27.4336L14.2604 27.3804Z" fill="currentColor"/>
<path d="M29.6258 26.9542C29.736 27.0075 29.736 27.0075 29.736 27.0075L29.6258 26.9542Z" fill="currentColor"/>
<path d="M11.6169 25.6757C11.727 25.729 11.727 25.729 11.727 25.729L11.6169 25.6757Z" fill="currentColor"/>
<path d="M24.0634 21.9469C24.1736 22.0002 24.1736 22.0002 24.1736 22.0002L24.0634 21.9469Z" fill="currentColor"/>
<path d="M18.6663 20.5619C18.7764 20.6152 18.7764 20.6152 18.7764 20.6152L18.6663 20.5619Z" fill="currentColor"/>
<path d="M0.0515102 19.0171C0.161657 19.0704 0.161657 19.0704 0.161657 19.0704L0.0515102 19.0171Z" fill="currentColor"/>
<path d="M18.5561 12.3052C18.6663 12.3584 18.6663 12.3584 18.6663 12.3584L18.5561 12.3052Z" fill="currentColor"/>
<path d="M20.9793 10.9202C21.0895 10.9734 21.0895 10.9734 21.0895 10.9734L20.9793 10.9202Z" fill="currentColor"/>
<path d="M28.9099 8.68287C29.02 8.73614 29.02 8.73614 29.02 8.73614L28.9099 8.68287Z" fill="currentColor"/>
<path d="M1.81385 8.4698C1.924 8.52307 1.924 8.52307 1.924 8.52307L1.81385 8.4698Z" fill="currentColor"/>
<path d="M13.1589 6.23249C13.2691 6.28576 13.2691 6.28576 13.2691 6.28576L13.1589 6.23249Z" fill="currentColor"/>
<path d="M12.8836 6.23249C12.9937 6.28576 12.9937 6.28576 12.9937 6.28576L12.8836 6.23249Z" fill="currentColor"/>
<path d="M36.8955 6.17922C37.0057 6.23249 37.0057 6.23249 37.0057 6.23249L36.8955 6.17922Z" fill="currentColor"/>
<path d="M30.0664 5.53999C30.1766 5.59326 30.1766 5.59326 30.1766 5.59326L30.0664 5.53999Z" fill="currentColor"/>
<path d="M15.5271 5.48672C15.6372 5.53999 15.6372 5.53999 15.6372 5.53999L15.5271 5.48672Z" fill="currentColor"/>
<path d="M11.7821 4.04846C11.8923 4.10173 11.8923 4.10173 11.8923 4.10173L11.7821 4.04846Z" fill="currentColor"/>
<path d="M35.9593 0.266346C36.0694 0.319615 36.0694 0.319615 36.0694 0.319615L35.9593 0.266346Z" fill="currentColor"/>
</svg>
