<svg width="154" height="47" viewBox="0 0 154 47" fill="none" xmlns="http://www.w3.org/2000/svg">
<path d="M13.2 36.768C10.544 36.768 8.22396 36.224 6.23996 35.136C4.25596 34.048 2.71996 32.496 1.63196 30.48C0.543959 28.464 -4.09484e-05 26.112 -4.09484e-05 23.424V1.15202H7.43996V14.256H7.58396C8.06396 13.584 8.65596 13.008 9.35996 12.528C10.096 12.016 10.896 11.632 11.76 11.376C12.656 11.12 13.6 10.992 14.592 10.992C16.928 10.992 18.976 11.52 20.736 12.576C22.496 13.632 23.872 15.088 24.864 16.944C25.888 18.8 26.4 20.976 26.4 23.472C26.4 25.392 26.096 27.168 25.488 28.8C24.88 30.432 24 31.856 22.848 33.072C21.728 34.256 20.352 35.168 18.72 35.808C17.12 36.448 15.28 36.768 13.2 36.768ZM13.2 30.336C14.352 30.336 15.344 30.064 16.176 29.52C17.008 28.944 17.648 28.176 18.096 27.216C18.576 26.224 18.816 25.12 18.816 23.904C18.816 22.688 18.576 21.6 18.096 20.64C17.648 19.68 17.008 18.928 16.176 18.384C15.344 17.808 14.352 17.52 13.2 17.52C12.048 17.52 11.04 17.808 10.176 18.384C9.34396 18.928 8.70396 19.68 8.25596 20.64C7.80796 21.6 7.58396 22.688 7.58396 23.904C7.58396 25.12 7.80796 26.224 8.25596 27.216C8.70396 28.176 9.34396 28.944 10.176 29.52C11.04 30.064 12.048 30.336 13.2 30.336ZM40.6893 36.768C38.1613 36.768 35.9693 36.288 34.1133 35.328C32.2893 34.336 30.8813 33.008 29.8893 31.344C28.8973 29.648 28.4013 27.776 28.4013 25.728V11.568H35.8413V25.536C35.8413 26.4 36.0493 27.2 36.4653 27.936C36.8813 28.64 37.4413 29.216 38.1453 29.664C38.8813 30.08 39.7133 30.288 40.6413 30.288C41.5373 30.288 42.3373 30.08 43.0413 29.664C43.7773 29.216 44.3533 28.64 44.7693 27.936C45.1853 27.2 45.3933 26.4 45.3933 25.536V11.568H52.8333V25.728C52.8333 27.776 52.3533 29.648 51.3933 31.344C50.4333 33.008 49.0413 34.336 47.2173 35.328C45.4253 36.288 43.2493 36.768 40.6893 36.768ZM56.0013 36.192V21.648C56.0013 19.632 56.4653 17.824 57.3933 16.224C58.3533 14.592 59.7133 13.312 61.4733 12.384C63.2333 11.456 65.3293 10.992 67.7613 10.992C68.9773 10.992 70.0973 11.136 71.1213 11.424C72.1453 11.68 73.0733 12.048 73.9053 12.528C74.7693 12.976 75.5053 13.52 76.1133 14.16H76.2093C76.8493 13.52 77.5853 12.976 78.4173 12.528C79.2813 12.048 80.2253 11.68 81.2493 11.424C82.3053 11.136 83.4413 10.992 84.6573 10.992C87.0893 10.992 89.1853 11.456 90.9453 12.384C92.7053 13.312 94.0653 14.592 95.0253 16.224C95.9853 17.824 96.4653 19.632 96.4653 21.648V36.192H88.9773V21.888C88.9773 21.088 88.7693 20.368 88.3533 19.728C87.9693 19.056 87.4413 18.512 86.7693 18.096C86.0973 17.68 85.3293 17.472 84.4653 17.472C83.6013 17.472 82.8173 17.68 82.1133 18.096C81.4413 18.512 80.9133 19.056 80.5293 19.728C80.1453 20.368 79.9533 21.088 79.9533 21.888V36.192H72.5133V21.888C72.5133 21.088 72.3053 20.368 71.8893 19.728C71.5053 19.056 70.9613 18.512 70.2573 18.096C69.5853 17.68 68.8173 17.472 67.9533 17.472C67.0893 17.472 66.3053 17.68 65.6013 18.096C64.9293 18.512 64.4013 19.056 64.0173 19.728C63.6333 20.368 63.4413 21.088 63.4413 21.888V36.192H56.0013ZM112.594 10.992C114.674 10.992 116.514 11.328 118.114 12C119.746 12.64 121.122 13.568 122.242 14.784C123.394 15.968 124.274 17.376 124.882 19.008C125.49 20.608 125.794 22.384 125.794 24.336C125.794 26.768 125.282 28.928 124.258 30.816C123.266 32.672 121.89 34.128 120.13 35.184C118.37 36.24 116.322 36.768 113.986 36.768C112.994 36.768 112.05 36.64 111.154 36.384C110.29 36.128 109.49 35.76 108.754 35.28C108.05 34.8 107.458 34.208 106.978 33.504H106.834V46.608H99.3937V24.336C99.3937 21.616 99.9377 19.264 101.026 17.28C102.114 15.296 103.65 13.76 105.634 12.672C107.618 11.552 109.938 10.992 112.594 10.992ZM112.594 17.424C111.442 17.424 110.434 17.712 109.57 18.288C108.738 18.832 108.098 19.6 107.65 20.592C107.202 21.552 106.978 22.64 106.978 23.856C106.978 25.072 107.202 26.16 107.65 27.12C108.098 28.08 108.738 28.848 109.57 29.424C110.434 29.968 111.442 30.24 112.594 30.24C113.746 30.24 114.738 29.968 115.57 29.424C116.402 28.848 117.042 28.08 117.49 27.12C117.97 26.16 118.21 25.072 118.21 23.856C118.21 22.64 117.97 21.552 117.49 20.592C117.042 19.6 116.402 18.832 115.57 18.288C114.738 17.712 113.746 17.424 112.594 17.424ZM135.882 36.192C133.61 36.192 131.834 35.552 130.554 34.272C129.274 32.96 128.634 31.2 128.634 28.992V5.56802H136.122V28.56C136.122 28.944 136.25 29.28 136.506 29.568C136.794 29.824 137.13 29.952 137.514 29.952H142.89V36.192H135.882ZM124.602 17.664V11.568H142.89V17.664H124.602ZM145.036 36.192V11.568H152.524V36.192H145.036ZM148.78 8.78401C147.596 8.78401 146.572 8.35201 145.708 7.48801C144.844 6.62402 144.412 5.60002 144.412 4.41601C144.412 3.23201 144.844 2.20801 145.708 1.34402C146.572 0.448016 147.596 1.62125e-05 148.78 1.62125e-05C149.964 1.62125e-05 150.988 0.448016 151.852 1.34402C152.716 2.20801 153.148 3.23201 153.148 4.41601C153.148 5.60002 152.716 6.62402 151.852 7.48801C150.988 8.35201 149.964 8.78401 148.78 8.78401Z" fill="#1D9BF0"/>
</svg>
