<svg width="16" height="16" viewBox="0 0 16 16" fill="none" xmlns="http://www.w3.org/2000/svg">
<g clip-path="url(#clip0_152_27)">
<path fill-rule="evenodd" clip-rule="evenodd" d="M6.701 1.08C6.64325 0.889975 6.51248 0.730617 6.33738 0.636883C6.16229 0.543148 5.95716 0.522691 5.767 0.579999C4.53796 0.949672 3.41996 1.61879 2.51339 2.52728C1.60683 3.43576 0.940075 4.55517 0.573002 5.785C0.544834 5.87942 0.535539 5.97846 0.545647 6.07648C0.555756 6.17449 0.585071 6.26955 0.631918 6.35623C0.678765 6.44292 0.742227 6.51953 0.818681 6.58168C0.895134 6.64384 0.983082 6.69033 1.0775 6.7185C1.17192 6.74667 1.27097 6.75596 1.36898 6.74585C1.46699 6.73575 1.56205 6.70643 1.64874 6.65958C1.73542 6.61274 1.81203 6.54927 1.87419 6.47282C1.93634 6.39637 1.98283 6.30842 2.011 6.214C2.30676 5.22202 2.84426 4.31904 3.57525 3.58613C4.30623 2.85323 5.20781 2.31336 6.199 2.015C6.38939 1.95766 6.54923 1.82707 6.64336 1.65192C6.7375 1.47678 6.75823 1.27042 6.701 1.08ZM9.299 1.08C9.35655 0.889791 9.48723 0.730196 9.66235 0.636261C9.83747 0.542326 10.0427 0.521731 10.233 0.578999C11.4622 0.948766 12.5802 1.61804 13.4868 2.52671C14.3934 3.43538 15.0601 4.55499 15.427 5.785C15.4839 5.97569 15.4627 6.18117 15.3681 6.35623C15.2735 6.5313 15.1132 6.66161 14.9225 6.7185C14.7318 6.77539 14.5263 6.7542 14.3513 6.65958C14.1762 6.56497 14.0459 6.40469 13.989 6.214C13.6932 5.22202 13.1557 4.31904 12.4248 3.58613C11.6938 2.85323 10.7922 2.31336 9.801 2.015C9.61061 1.95766 9.45078 1.82707 9.35664 1.65192C9.26251 1.47678 9.24178 1.27042 9.299 1.08ZM11.78 5.22C11.9205 5.36062 11.9993 5.55125 11.9993 5.75C11.9993 5.94875 11.9205 6.13937 11.78 6.28L7.28 10.78C7.13938 10.9204 6.94875 10.9993 6.75 10.9993C6.55125 10.9993 6.36063 10.9204 6.22 10.78L4.47 9.03C4.33752 8.88782 4.2654 8.69978 4.26883 8.50548C4.27226 8.31118 4.35097 8.12579 4.48838 7.98838C4.62579 7.85096 4.81118 7.77225 5.00548 7.76882C5.19978 7.7654 5.38783 7.83752 5.53 7.97L6.75 9.19L10.72 5.22C10.8606 5.07955 11.0513 5.00066 11.25 5.00066C11.4488 5.00066 11.6394 5.07955 11.78 5.22ZM10.233 15.42C10.138 15.4511 10.0377 15.4628 9.938 15.4546C9.83835 15.4463 9.74135 15.4183 9.65271 15.372C9.56407 15.3257 9.48558 15.2621 9.42186 15.1851C9.35814 15.108 9.31048 15.019 9.28167 14.9232C9.25286 14.8275 9.24349 14.7269 9.25412 14.6275C9.26474 14.528 9.29514 14.4317 9.34353 14.3442C9.39192 14.2567 9.45732 14.1798 9.53588 14.1179C9.61444 14.056 9.70459 14.0105 9.801 13.984C10.7922 13.6856 11.6938 13.1458 12.4248 12.4129C13.1557 11.68 13.6932 10.777 13.989 9.785C14.0172 9.69058 14.0637 9.60263 14.1258 9.52618C14.188 9.44972 14.2646 9.38626 14.3513 9.33941C14.438 9.29257 14.533 9.26325 14.631 9.25314C14.729 9.24304 14.8281 9.25233 14.9225 9.2805C15.0169 9.30867 15.1049 9.35516 15.1813 9.41732C15.2578 9.47947 15.3212 9.55608 15.3681 9.64276C15.4149 9.72945 15.4442 9.82451 15.4544 9.92252C15.4645 10.0205 15.4552 10.1196 15.427 10.214C15.0601 11.444 14.3934 12.5636 13.4868 13.4723C12.5802 14.381 11.4622 15.0502 10.233 15.42ZM5.767 15.42C5.86205 15.4511 5.96235 15.4628 6.062 15.4546C6.16166 15.4463 6.25866 15.4183 6.3473 15.372C6.43594 15.3257 6.51442 15.2621 6.57814 15.1851C6.64186 15.108 6.68953 15.019 6.71834 14.9232C6.74714 14.8275 6.75651 14.7269 6.74589 14.6275C6.73526 14.528 6.70486 14.4317 6.65648 14.3442C6.60809 14.2567 6.54269 14.1798 6.46413 14.1179C6.38556 14.056 6.29542 14.0105 6.199 13.984C5.20781 13.6856 4.30623 13.1458 3.57525 12.4129C2.84426 11.68 2.30676 10.777 2.011 9.785C1.95411 9.59431 1.8238 9.43403 1.64874 9.33941C1.47367 9.2448 1.26819 9.22361 1.0775 9.2805C0.886812 9.33739 0.72653 9.4677 0.631918 9.64276C0.537306 9.81783 0.516113 10.0233 0.573002 10.214C0.939932 11.444 1.60662 12.5636 2.5132 13.4723C3.41977 14.381 4.53784 15.0502 5.767 15.42Z" fill="currentColor"/>
</g>
<defs>
<clipPath id="clip0_152_27">
<rect width="16" height="16" fill="white"/>
</clipPath>
</defs>
</svg>
