<svg width="24" height="24" viewBox="0 0 24 24" fill="none" xmlns="http://www.w3.org/2000/svg">
<path d="M11.051 7.616C11.1171 7.41334 11.2462 7.23709 11.4195 7.11297C11.5928 6.98884 11.8012 6.92335 12.0143 6.92602C12.2275 6.9287 12.4342 6.99942 12.6043 7.12786C12.7744 7.2563 12.899 7.43574 12.96 7.64L13.697 9.092C13.7687 9.23315 13.8729 9.35526 14.0011 9.44827C14.1292 9.54128 14.2776 9.60254 14.434 9.627L16.068 9.883C16.2784 9.88382 16.4832 9.95099 16.6532 10.0749C16.8232 10.1989 16.9498 10.3733 17.015 10.5734C17.0801 10.7735 17.0805 10.989 17.016 11.1893C16.9516 11.3896 16.8256 11.5645 16.656 11.689L15.484 12.857C15.3718 12.9687 15.2877 13.1055 15.2387 13.256C15.1897 13.4066 15.1771 13.5666 15.202 13.723L15.461 15.336C15.5323 15.5382 15.5367 15.7579 15.4736 15.9627C15.4105 16.1676 15.2832 16.3468 15.1106 16.4738C14.9379 16.6009 14.729 16.6691 14.5146 16.6684C14.3003 16.6677 14.0918 16.5982 13.92 16.47L12.455 15.72C12.3139 15.6477 12.1576 15.61 11.999 15.61C11.8404 15.61 11.6841 15.6477 11.543 15.72L10.078 16.47C9.90618 16.5971 9.69816 16.6658 9.48445 16.666C9.27073 16.6663 9.06256 16.598 8.89046 16.4713C8.71835 16.3446 8.59136 16.1661 8.52811 15.962C8.46486 15.7579 8.46868 15.5388 8.539 15.337L8.797 13.724C8.82208 13.5675 8.80959 13.4072 8.76055 13.2565C8.71152 13.1057 8.62736 12.9688 8.515 12.857L7.359 11.705C7.18366 11.5835 7.05175 11.4092 6.98256 11.2074C6.91336 11.0056 6.9105 10.787 6.9744 10.5835C7.03829 10.38 7.16558 10.2022 7.33769 10.0762C7.50979 9.95015 7.71769 9.88246 7.931 9.883L9.564 9.627C9.72043 9.60254 9.86881 9.54128 9.99694 9.44827C10.1251 9.35526 10.2293 9.23315 10.301 9.092L11.051 7.616Z" stroke="currentColor" stroke-width="2" stroke-linecap="round" stroke-linejoin="round"/>
<path d="M12 22C17.5228 22 22 17.5228 22 12C22 6.47715 17.5228 2 12 2C6.47715 2 2 6.47715 2 12C2 17.5228 6.47715 22 12 22Z" stroke="currentColor" stroke-width="2" stroke-linecap="round" stroke-linejoin="round"/>
</svg>
