<svg width="24" height="24" viewBox="0 0 24 24" fill="none" xmlns="http://www.w3.org/2000/svg">
  <!-- Clock circle -->
  <circle cx="12" cy="12" r="9" stroke="currentColor" stroke-width="2" fill="none"/>
  
  <!-- Clock hands -->
  <path d="M12 6V12L15 15" stroke="currentColor" stroke-width="2" stroke-linecap="round" stroke-linejoin="round"/>
  
  <!-- Flame -->
  <path d="M17 8C17 8 18.5 6 18.5 4.5C18.5 3.5 18 3 17.5 3C17 3 16.5 3.5 16.5 4.5C16.5 5.5 17.5 6.5 17.5 7.5" stroke="currentColor" stroke-width="1.5" stroke-linecap="round" stroke-linejoin="round" fill="none"/>
  <path d="M19.5 7C19.5 7 20.5 5.5 20.5 4.5C20.5 3.8 20.2 3.5 19.8 3.5C19.4 3.5 19 3.8 19 4.5C19 5 19.5 5.5 19.5 6" stroke="currentColor" stroke-width="1.2" stroke-linecap="round" stroke-linejoin="round" fill="none"/>
  
  <!-- Small flame accent -->
  <path d="M15.5 6.5C15.5 6.5 16 5.5 16 4.8C16 4.3 15.7 4 15.4 4C15.1 4 14.8 4.3 14.8 4.8C14.8 5.2 15.2 5.7 15.2 6" stroke="currentColor" stroke-width="1" stroke-linecap="round" stroke-linejoin="round" fill="none"/>
</svg>
