<svg width="24" height="24" viewBox="0 0 24 24" fill="none" xmlns="http://www.w3.org/2000/svg">
<path d="M22 10V16M5.99998 12.5V16C5.99998 16.7957 6.63212 17.5587 7.75734 18.1213C8.88256 18.6839 10.4087 19 12 19C13.5913 19 15.1174 18.6839 16.2426 18.1213C17.3678 17.5587 18 16.7957 18 16V12.5M21.42 10.922C21.599 10.843 21.7509 10.7133 21.8569 10.5488C21.9629 10.3843 22.0183 10.1924 22.0163 9.99674C22.0143 9.80109 21.9549 9.61033 21.8455 9.44809C21.7362 9.28585 21.5816 9.15926 21.401 9.08401L12.83 5.18001C12.5694 5.06115 12.2864 4.99965 12 4.99965C11.7136 4.99965 11.4305 5.06115 11.17 5.18001L2.59998 9.08001C2.42195 9.15798 2.2705 9.28614 2.16415 9.44882C2.0578 9.6115 2.00116 9.80165 2.00116 9.99601C2.00116 10.1904 2.0578 10.3805 2.16415 10.5432C2.2705 10.7059 2.42195 10.834 2.59998 10.912L11.17 14.82C11.4305 14.9389 11.7136 15.0004 12 15.0004C12.2864 15.0004 12.5694 14.9389 12.83 14.82L21.42 10.922Z" stroke="currentColor" stroke-width="2" stroke-linecap="round" stroke-linejoin="round"/>
</svg>
