<svg width="24" height="24" viewBox="0 0 24 24" fill="none" xmlns="http://www.w3.org/2000/svg">
<path d="M12.409 5.824C11.707 6.616 11.259 7.32 10.994 7.99L13.147 10.146C13.2407 10.2398 13.2934 10.3669 13.2934 10.4995C13.2934 10.6321 13.2407 10.7592 13.147 10.853L10.854 13.146C10.7603 13.2398 10.7076 13.3669 10.7076 13.4995C10.7076 13.6321 10.7603 13.7592 10.854 13.853L12 15M12.409 5.824C12.2978 5.92734 12.1516 5.98469 11.9998 5.9845C11.848 5.98432 11.7019 5.92661 11.591 5.823C10.8472 4.99522 9.86972 4.41256 8.78777 4.15198C7.70582 3.89141 6.57028 3.96519 5.53114 4.36358C4.49201 4.76196 3.59817 5.46621 2.96771 6.38328C2.33725 7.30036 1.99982 8.38712 2 9.5C2 11.8 3.5 13.5 5 15L10.508 20.332C10.697 20.5436 10.9289 20.7126 11.1883 20.8277C11.4476 20.9428 11.7285 21.0014 12.0123 20.9996C12.296 20.9978 12.5762 20.9357 12.834 20.8173C13.0919 20.6989 13.3217 20.527 13.508 20.313L19 15C20.5 13.5 22 11.79 22 9.5C22 8.3872 21.6624 7.30058 21.0319 6.38366C20.4013 5.46674 19.5075 4.76266 18.4684 4.3644C17.4293 3.96614 16.2938 3.89244 15.212 4.15304C14.1301 4.41364 13.1528 4.99628 12.409 5.824Z" stroke="currentColor" stroke-width="2" stroke-linecap="round" stroke-linejoin="round"/>
</svg>
