<svg width="16" height="72" viewBox="0 0 16 72" fill="none" xmlns="http://www.w3.org/2000/svg">
<path d="M8 16C5.8 16 3.91667 15.2167 2.35 13.65C0.783333 12.0833 0 10.2 0 8C0 5.8 0.783333 3.91667 2.35 2.35C3.91667 0.783333 5.8 0 8 0C10.2 0 12.0833 0.783333 13.65 2.35C15.2167 3.91667 16 5.8 16 8C16 10.2 15.2167 12.0833 13.65 13.65C12.0833 15.2167 10.2 16 8 16ZM8 72C6.33333 72 4.91667 71.4167 3.75 70.25C2.58333 69.0833 2 67.6667 2 66V30C2 28.3333 2.58333 26.9167 3.75 25.75C4.91667 24.5833 6.33333 24 8 24C9.66667 24 11.0833 24.5833 12.25 25.75C13.4167 26.9167 14 28.3333 14 30V66C14 67.6667 13.4167 69.0833 12.25 70.25C11.0833 71.4167 9.66667 72 8 72Z" fill="currentColor"/>
</svg>
