<svg width="110" height="33" viewBox="0 0 110 33" fill="none" xmlns="http://www.w3.org/2000/svg">
<path d="M24.092 14.504C24.476 13.88 25.028 13.376 25.748 12.992C26.468 12.608 27.292 12.416 28.22 12.416C29.324 12.416 30.324 12.696 31.22 13.256C32.116 13.816 32.82 14.616 33.332 15.656C33.86 16.696 34.124 17.904 34.124 19.28C34.124 20.656 33.86 21.872 33.332 22.928C32.82 23.968 32.116 24.776 31.22 25.352C30.324 25.912 29.324 26.192 28.22 26.192C27.276 26.192 26.452 26.008 25.748 25.64C25.044 25.256 24.492 24.752 24.092 24.128V26H19.988V8.24H24.092V14.504ZM29.948 19.28C29.948 18.256 29.66 17.456 29.084 16.88C28.524 16.288 27.828 15.992 26.996 15.992C26.18 15.992 25.484 16.288 24.908 16.88C24.348 17.472 24.068 18.28 24.068 19.304C24.068 20.328 24.348 21.136 24.908 21.728C25.484 22.32 26.18 22.616 26.996 22.616C27.812 22.616 28.508 22.32 29.084 21.728C29.66 21.12 29.948 20.304 29.948 19.28ZM49.5011 12.608V26H45.3971V24.176C44.9811 24.768 44.4131 25.248 43.6931 25.616C42.9891 25.968 42.2051 26.144 41.3411 26.144C40.3171 26.144 39.4131 25.92 38.6291 25.472C37.8451 25.008 37.2371 24.344 36.8051 23.48C36.3731 22.616 36.1571 21.6 36.1571 20.432V12.608H40.2371V19.88C40.2371 20.776 40.4691 21.472 40.9331 21.968C41.3971 22.464 42.0211 22.712 42.8051 22.712C43.6051 22.712 44.2371 22.464 44.7011 21.968C45.1651 21.472 45.3971 20.776 45.3971 19.88V12.608H49.5011ZM69.5369 12.464C71.2009 12.464 72.5209 12.968 73.4969 13.976C74.4889 14.984 74.9849 16.384 74.9849 18.176V26H70.9049V18.728C70.9049 17.864 70.6729 17.2 70.2089 16.736C69.7609 16.256 69.1369 16.016 68.3369 16.016C67.5369 16.016 66.9049 16.256 66.4409 16.736C65.9929 17.2 65.7689 17.864 65.7689 18.728V26H61.6889V18.728C61.6889 17.864 61.4569 17.2 60.9929 16.736C60.5449 16.256 59.9209 16.016 59.1209 16.016C58.3209 16.016 57.6889 16.256 57.2249 16.736C56.7769 17.2 56.5529 17.864 56.5529 18.728V26H52.4489V12.608H56.5529V14.288C56.9689 13.728 57.5129 13.288 58.1849 12.968C58.8569 12.632 59.6169 12.464 60.4649 12.464C61.4729 12.464 62.3689 12.68 63.1529 13.112C63.9529 13.544 64.5769 14.16 65.0249 14.96C65.4889 14.224 66.1209 13.624 66.9209 13.16C67.7209 12.696 68.5929 12.464 69.5369 12.464ZM81.9592 14.504C82.3592 13.88 82.9112 13.376 83.6152 12.992C84.3192 12.608 85.1432 12.416 86.0872 12.416C87.1912 12.416 88.1912 12.696 89.0872 13.256C89.9832 13.816 90.6872 14.616 91.1992 15.656C91.7272 16.696 91.9912 17.904 91.9912 19.28C91.9912 20.656 91.7272 21.872 91.1992 22.928C90.6872 23.968 89.9832 24.776 89.0872 25.352C88.1912 25.912 87.1912 26.192 86.0872 26.192C85.1592 26.192 84.3352 26 83.6152 25.616C82.9112 25.232 82.3592 24.736 81.9592 24.128V32.384H77.8552V12.608H81.9592V14.504ZM87.8152 19.28C87.8152 18.256 87.5272 17.456 86.9512 16.88C86.3912 16.288 85.6952 15.992 84.8632 15.992C84.0472 15.992 83.3512 16.288 82.7752 16.88C82.2152 17.472 81.9352 18.28 81.9352 19.304C81.9352 20.328 82.2152 21.136 82.7752 21.728C83.3512 22.32 84.0472 22.616 84.8632 22.616C85.6792 22.616 86.3752 22.32 86.9512 21.728C87.5272 21.12 87.8152 20.304 87.8152 19.28ZM101.608 22.52V26H99.5203C98.0323 26 96.8723 25.64 96.0403 24.92C95.2083 24.184 94.7923 22.992 94.7923 21.344V16.016H93.1603V12.608H94.7923V9.344H98.8963V12.608H101.584V16.016H98.8963V21.392C98.8963 21.792 98.9923 22.08 99.1843 22.256C99.3763 22.432 99.6963 22.52 100.144 22.52H101.608ZM105.958 11.216C105.238 11.216 104.646 11.008 104.182 10.592C103.734 10.16 103.51 9.632 103.51 9.008C103.51 8.368 103.734 7.84 104.182 7.424C104.646 6.992 105.238 6.776 105.958 6.776C106.662 6.776 107.238 6.992 107.686 7.424C108.15 7.84 108.382 8.368 108.382 9.008C108.382 9.632 108.15 10.16 107.686 10.592C107.238 11.008 106.662 11.216 105.958 11.216ZM107.998 12.608V26H103.894V12.608H107.998Z" fill="#1D9BF0"/>
<path d="M9.77778 16.55C10.0696 16.55 10.3586 16.4918 10.6282 16.3787C10.8978 16.2657 11.1428 16.0999 11.3491 15.891C11.5555 15.6821 11.7192 15.434 11.8308 15.161C11.9425 14.8881 12 14.5955 12 14.3C12 13.7033 11.7659 13.131 11.3491 12.709C10.9324 12.2871 10.3671 12.05 9.77778 12.05C9.18841 12.05 8.62318 12.2871 8.20643 12.709C7.78968 13.131 7.55556 13.7033 7.55556 14.3C7.55556 14.5955 7.61303 14.8881 7.72471 15.161C7.83639 15.434 8.00008 15.6821 8.20643 15.891C8.62318 16.3129 9.18841 16.55 9.77778 16.55ZM9.77778 8C13.2089 8 16 10.817 16 14.3C16 19.025 9.77778 26 9.77778 26C9.77778 26 3.55556 19.025 3.55556 14.3C3.55556 12.6291 4.21111 11.0267 5.378 9.84523C6.5449 8.66375 8.12754 8 9.77778 8ZM1.77778 14.3C1.77778 18.35 6.29333 23.894 7.11111 24.929L6.22222 26C6.22222 26 0 19.025 0 14.3C0 11.447 1.87556 9.035 4.44444 8.261C2.80889 9.746 1.77778 11.897 1.77778 14.3Z" fill="#1D9BF0"/>
</svg>
