<svg width="24" height="24" viewBox="0 0 24 24" fill="none" xmlns="http://www.w3.org/2000/svg">
<path d="M22.0002 12C22.0002 12.0947 21.9733 12.1875 21.9227 12.2675C21.872 12.3475 21.7996 12.4115 21.714 12.452L3.71399 20.952C3.62409 20.9956 3.52315 21.0111 3.4243 20.9966C3.32546 20.982 3.23326 20.9381 3.15971 20.8705C3.08616 20.8029 3.03465 20.7147 3.01187 20.6174C2.9891 20.5201 2.99611 20.4183 3.03199 20.325L5.87399 12.698C6.04167 12.2478 6.04167 11.7522 5.87399 11.302L3.03099 3.67501C2.99492 3.58165 2.98782 3.47959 3.01061 3.38213C3.0334 3.28468 3.08502 3.19635 3.15875 3.12867C3.23248 3.06099 3.32489 3.01709 3.42393 3.0027C3.52297 2.98831 3.62406 3.0041 3.71399 3.04801L21.714 11.548C21.7996 11.5885 21.872 11.6525 21.9227 11.7325C21.9733 11.8125 22.0002 11.9053 22.0002 12ZM22.0002 12H5.99999" stroke="currentColor" stroke-width="2" stroke-linecap="round" stroke-linejoin="round"/>
</svg>
